999
"DXF R12 Output" (www.mydxf.blogspot.com)
 0 
SECTION
 2 
HEADER
 9 
$ACADVER
 1 
AC1009
 9 
$EXTMIN
 10 
 0 
 20 
 0 
 9 
$EXTMAX
 10 
 8.5 
 20 
 11 
 0 
ENDSEC
 0 
SECTION
 2 
ENTITIES
0
LINE
8
Layer 1
10
165.565780
20
55.492737
11
169.122878
21
55.696855
0
LINE
8
Layer 1
10
169.122878
20
55.696855
11
172.589524
21
55.690688
0
LINE
8
Layer 1
10
172.589524
20
55.690688
11
175.959763
21
55.494321
0
LINE
8
Layer 1
10
175.959763
20
55.494321
11
179.227642
21
55.127837
0
LINE
8
Layer 1
10
179.227642
20
55.127837
11
179.774426
21
54.906337
0
LINE
8
Layer 1
10
179.774426
20
54.906337
11
180.042450
21
54.779193
0
LINE
8
Layer 1
10
180.042450
20
54.779193
11
179.937599
21
54.774214
0
LINE
8
Layer 1
10
179.937599
20
54.774214
11
177.932657
21
48.207788
0
LINE
8
Layer 1
10
177.932657
20
48.207788
11
176.034707
21
41.464647
0
LINE
8
Layer 1
10
176.034707
20
41.464647
11
174.717719
21
42.797665
0
LINE
8
Layer 1
10
174.717719
20
42.797665
11
173.234262
21
43.614231
0
LINE
8
Layer 1
10
173.234262
20
43.614231
11
171.634185
21
43.965694
0
LINE
8
Layer 1
10
171.634185
20
43.965694
11
169.967337
21
43.903409
0
LINE
8
Layer 1
10
169.967337
20
43.903409
11
168.283568
21
43.478727
0
LINE
8
Layer 1
10
168.283568
20
43.478727
11
166.632725
21
42.743000
0
LINE
8
Layer 1
10
166.632725
20
42.743000
11
165.064658
21
41.747581
0
LINE
8
Layer 1
10
165.064658
20
41.747581
11
163.629216
21
40.543822
0
LINE
8
Layer 1
10
163.629216
20
40.543822
11
162.376248
21
39.183076
0
LINE
8
Layer 1
10
162.376248
20
39.183076
11
161.355602
21
37.716694
0
LINE
8
Layer 1
10
161.355602
20
37.716694
11
160.617128
21
36.196030
0
LINE
8
Layer 1
10
160.617128
20
36.196030
11
160.210674
21
34.672435
0
LINE
8
Layer 1
10
160.210674
20
34.672435
11
160.186090
21
33.197262
0
LINE
8
Layer 1
10
160.186090
20
33.197262
11
160.593224
21
31.821863
0
LINE
8
Layer 1
10
160.593224
20
31.821863
11
161.481925
21
30.597590
0
LINE
8
Layer 1
10
161.481925
20
30.597590
11
162.902043
21
29.575796
0
LINE
8
Layer 1
10
162.902043
20
29.575796
11
163.977731
21
29.112345
0
LINE
8
Layer 1
10
163.977731
20
29.112345
11
165.131522
21
28.804936
0
LINE
8
Layer 1
10
165.131522
20
28.804936
11
166.329155
21
28.651250
0
LINE
8
Layer 1
10
166.329155
20
28.651250
11
167.536370
21
28.648968
0
LINE
8
Layer 1
10
167.536370
20
28.648968
11
168.718907
21
28.795770
0
LINE
8
Layer 1
10
168.718907
20
28.795770
11
169.842507
21
29.089338
0
LINE
8
Layer 1
10
169.842507
20
29.089338
11
170.872909
21
29.527352
0
LINE
8
Layer 1
10
170.872909
20
29.527352
11
171.775854
21
30.107492
0
LINE
8
Layer 1
10
171.775854
20
30.107492
11
173.567573
21
31.779014
0
LINE
8
Layer 1
10
173.567573
20
31.779014
11
175.146849
21
33.656556
0
LINE
8
Layer 1
10
175.146849
20
33.656556
11
177.608855
21
25.993586
0
LINE
8
Layer 1
10
177.608855
20
25.993586
11
179.937599
21
18.218638
0
LINE
8
Layer 1
10
179.937599
20
18.218638
11
171.327519
21
16.844611
0
LINE
8
Layer 1
10
171.327519
20
16.844611
11
169.047905
21
16.612866
0
LINE
8
Layer 1
10
169.047905
20
16.612866
11
166.753774
21
16.524740
0
LINE
8
Layer 1
10
166.753774
20
16.524740
11
164.463289
21
16.629690
0
LINE
8
Layer 1
10
164.463289
20
16.629690
11
162.194611
21
16.977173
0
LINE
8
Layer 1
10
162.194611
20
16.977173
11
160.218073
21
17.496243
0
LINE
8
Layer 1
10
160.218073
20
17.496243
11
158.383580
21
18.163801
0
LINE
8
Layer 1
10
158.383580
20
18.163801
11
156.690359
21
18.969415
0
LINE
8
Layer 1
10
156.690359
20
18.969415
11
155.137636
21
19.902652
0
LINE
8
Layer 1
10
155.137636
20
19.902652
11
153.724639
21
20.953079
0
LINE
8
Layer 1
10
153.724639
20
20.953079
11
152.450595
21
22.110266
0
LINE
8
Layer 1
10
152.450595
20
22.110266
11
151.314730
21
23.363778
0
LINE
8
Layer 1
10
151.314730
20
23.363778
11
150.316272
21
24.703184
0
LINE
8
Layer 1
10
150.316272
20
24.703184
11
149.454449
21
26.118052
0
LINE
8
Layer 1
10
149.454449
20
26.118052
11
148.728486
21
27.597948
0
LINE
8
Layer 1
10
148.728486
20
27.597948
11
147.681053
21
30.711097
0
LINE
8
Layer 1
10
147.681053
20
30.711097
11
147.167789
21
33.959173
0
LINE
8
Layer 1
10
147.167789
20
33.959173
11
147.182511
21
37.258715
0
LINE
8
Layer 1
10
147.182511
20
37.258715
11
147.719035
21
40.526265
0
LINE
8
Layer 1
10
147.719035
20
40.526265
11
148.771179
21
43.678363
0
LINE
8
Layer 1
10
148.771179
20
43.678363
11
150.332759
21
46.631549
0
LINE
8
Layer 1
10
150.332759
20
46.631549
11
151.302655
21
48.007470
0
LINE
8
Layer 1
10
151.302655
20
48.007470
11
152.397591
21
49.302366
0
LINE
8
Layer 1
10
152.397591
20
49.302366
11
153.616795
21
50.505804
0
LINE
8
Layer 1
10
153.616795
20
50.505804
11
154.959493
21
51.607352
0
LINE
8
Layer 1
10
154.959493
20
51.607352
11
156.424912
21
52.596577
0
LINE
8
Layer 1
10
156.424912
20
52.596577
11
158.012280
21
53.463048
0
LINE
8
Layer 1
10
158.012280
20
53.463048
11
159.720824
21
54.196332
0
LINE
8
Layer 1
10
159.720824
20
54.196332
11
161.549770
21
54.785997
0
LINE
8
Layer 1
10
161.549770
20
54.785997
11
163.498346
21
55.221609
0
LINE
8
Layer 1
10
163.498346
20
55.221609
11
165.565780
21
55.492737
0
LINE
8
Layer 1
10
15.160702
20
55.482627
11
18.142075
21
55.560392
0
LINE
8
Layer 1
10
18.142075
20
55.560392
11
21.064961
21
55.411595
0
LINE
8
Layer 1
10
21.064961
20
55.411595
11
26.340949
21
54.771491
0
LINE
8
Layer 1
10
26.340949
20
54.771491
11
28.956172
21
54.102957
0
LINE
8
Layer 1
10
28.956172
20
54.102957
11
29.779624
21
53.794725
0
LINE
8
Layer 1
10
29.779624
20
53.794725
11
29.952044
21
53.714136
0
LINE
8
Layer 1
10
29.952044
20
53.714136
11
29.919872
21
53.708097
0
LINE
8
Layer 1
10
29.919872
20
53.708097
11
27.186263
21
43.834731
0
LINE
8
Layer 1
10
27.186263
20
43.834731
11
24.312270
21
44.363397
0
LINE
8
Layer 1
10
24.312270
20
44.363397
11
20.405849
21
45.011422
0
LINE
8
Layer 1
10
20.405849
20
45.011422
11
18.466516
21
45.209392
0
LINE
8
Layer 1
10
18.466516
20
45.209392
11
16.750321
21
45.232241
0
LINE
8
Layer 1
10
16.750321
20
45.232241
11
15.417679
21
45.011648
0
LINE
8
Layer 1
10
15.417679
20
45.011648
11
14.945320
21
44.788709
0
LINE
8
Layer 1
10
14.945320
20
44.788709
11
14.629004
21
44.479291
0
LINE
8
Layer 1
10
14.629004
20
44.479291
11
14.404226
21
43.972382
0
LINE
8
Layer 1
10
14.404226
20
43.972382
11
14.334602
21
43.416939
0
LINE
8
Layer 1
10
14.334602
20
43.416939
11
14.452095
21
42.173060
0
LINE
8
Layer 1
10
14.452095
20
42.173060
11
14.664800
21
41.840614
0
LINE
8
Layer 1
10
14.664800
20
41.840614
11
15.073326
21
41.560136
0
LINE
8
Layer 1
10
15.073326
20
41.560136
11
16.384553
21
41.121918
0
LINE
8
Layer 1
10
16.384553
20
41.121918
11
20.330691
21
40.504286
0
LINE
8
Layer 1
10
20.330691
20
40.504286
11
24.797896
21
39.789549
0
LINE
8
Layer 1
10
24.797896
20
39.789549
11
26.760457
21
39.229947
0
LINE
8
Layer 1
10
26.760457
20
39.229947
11
28.293555
21
38.447089
0
LINE
8
Layer 1
10
28.293555
20
38.447089
11
29.592683
21
37.301748
0
LINE
8
Layer 1
10
29.592683
20
37.301748
11
30.672467
21
35.894816
0
LINE
8
Layer 1
10
30.672467
20
35.894816
11
31.494288
21
34.211112
0
LINE
8
Layer 1
10
31.494288
20
34.211112
11
32.019526
21
32.235454
0
LINE
8
Layer 1
10
32.019526
20
32.235454
11
32.222836
21
30.552015
0
LINE
8
Layer 1
10
32.222836
20
30.552015
11
32.251860
21
28.945908
0
LINE
8
Layer 1
10
32.251860
20
28.945908
11
32.115635
21
27.420452
0
LINE
8
Layer 1
10
32.115635
20
27.420452
11
31.823201
21
25.978970
0
LINE
8
Layer 1
10
31.823201
20
25.978970
11
31.383596
21
24.624785
0
LINE
8
Layer 1
10
31.383596
20
24.624785
11
30.805859
21
23.361216
0
LINE
8
Layer 1
10
30.805859
20
23.361216
11
30.099028
21
22.191586
0
LINE
8
Layer 1
10
30.099028
20
22.191586
11
29.272143
21
21.119216
0
LINE
8
Layer 1
10
29.272143
20
21.119216
11
27.294363
21
19.279544
0
LINE
8
Layer 1
10
27.294363
20
19.279544
11
24.944828
21
17.868774
0
LINE
8
Layer 1
10
24.944828
20
17.868774
11
22.295849
21
16.913477
0
LINE
8
Layer 1
10
22.295849
20
16.913477
11
19.419735
21
16.440227
0
LINE
8
Layer 1
10
19.419735
20
16.440227
11
16.107221
21
16.315587
0
LINE
8
Layer 1
10
16.107221
20
16.315587
11
12.833673
21
16.381998
0
LINE
8
Layer 1
10
12.833673
20
16.381998
11
6.467485
21
16.797546
0
LINE
8
Layer 1
10
6.467485
20
16.797546
11
1.142726
21
17.508675
0
LINE
8
Layer 1
10
1.142726
20
17.508675
11
1.142726
21
18.040375
0
LINE
8
Layer 1
10
1.142726
20
18.040375
11
3.627029
21
27.091102
0
LINE
8
Layer 1
10
3.627029
20
27.091102
11
6.813689
21
26.741191
0
LINE
8
Layer 1
10
6.813689
20
26.741191
11
11.076200
21
26.542587
0
LINE
8
Layer 1
10
11.076200
20
26.542587
11
13.192021
21
26.593899
0
LINE
8
Layer 1
10
13.192021
20
26.593899
11
15.074150
21
26.795685
0
LINE
8
Layer 1
10
15.074150
20
26.795685
11
16.555036
21
27.185494
0
LINE
8
Layer 1
10
16.555036
20
27.185494
11
17.467127
21
27.800875
0
LINE
8
Layer 1
10
17.467127
20
27.800875
11
17.950274
21
28.859873
0
LINE
8
Layer 1
10
17.950274
20
28.859873
11
17.963756
21
29.513205
0
LINE
8
Layer 1
10
17.963756
20
29.513205
11
17.645207
21
30.107104
0
LINE
8
Layer 1
10
17.645207
20
30.107104
11
16.576156
21
30.806954
0
LINE
8
Layer 1
10
16.576156
20
30.806954
11
15.320679
21
31.128097
0
LINE
8
Layer 1
10
15.320679
20
31.128097
11
12.559759
21
31.375015
0
LINE
8
Layer 1
10
12.559759
20
31.375015
11
7.849156
21
32.118464
0
LINE
8
Layer 1
10
7.849156
20
32.118464
11
5.817869
21
32.690552
0
LINE
8
Layer 1
10
5.817869
20
32.690552
11
4.041844
21
33.508808
0
LINE
8
Layer 1
10
4.041844
20
33.508808
11
2.550519
21
34.657674
0
LINE
8
Layer 1
10
2.550519
20
34.657674
11
1.373334
21
36.221593
0
LINE
8
Layer 1
10
1.373334
20
36.221593
11
0.539727
21
38.285009
0
LINE
8
Layer 1
10
0.539727
20
38.285009
11
0.079137
21
40.932366
0
LINE
8
Layer 1
10
0.079137
20
40.932366
11
0.031490
21
43.697015
0
LINE
8
Layer 1
10
0.031490
20
43.697015
11
0.390963
21
46.149279
0
LINE
8
Layer 1
10
0.390963
20
46.149279
11
1.126902
21
48.299365
0
LINE
8
Layer 1
10
1.126902
20
48.299365
11
2.208653
21
50.157477
0
LINE
8
Layer 1
10
2.208653
20
50.157477
11
3.276265
21
51.412334
0
LINE
8
Layer 1
10
3.276265
20
51.412334
11
4.512464
21
52.462927
0
LINE
8
Layer 1
10
4.512464
20
52.462927
11
5.911726
21
53.327214
0
LINE
8
Layer 1
10
5.911726
20
53.327214
11
7.468529
21
54.023154
0
LINE
8
Layer 1
10
7.468529
20
54.023154
11
9.177351
21
54.568706
0
LINE
8
Layer 1
10
9.177351
20
54.568706
11
11.032670
21
54.981830
0
LINE
8
Layer 1
10
11.032670
20
54.981830
11
15.160706
21
55.482627
0
LINE
8
Layer 1
10
83.332557
20
55.551641
11
99.680681
21
55.551641
0
LINE
8
Layer 1
10
99.680681
20
55.551641
11
110.150179
21
36.144553
0
LINE
8
Layer 1
10
110.150179
20
36.144553
11
110.150179
21
55.551641
0
LINE
8
Layer 1
10
110.150179
20
55.551641
11
122.394993
21
55.551641
0
LINE
8
Layer 1
10
122.394993
20
55.551641
11
122.394993
21
16.390264
0
LINE
8
Layer 1
10
122.394993
20
16.390264
11
105.404753
21
16.401959
0
LINE
8
Layer 1
10
105.404753
20
16.401959
11
95.778191
21
36.143811
0
LINE
8
Layer 1
10
95.778191
20
36.143811
11
95.778191
21
16.389326
0
LINE
8
Layer 1
10
95.778191
20
16.389326
11
83.332557
21
16.401021
0
LINE
8
Layer 1
10
83.332557
20
16.401021
11
83.332557
21
55.550154
0
LINE
8
Layer 1
10
128.793128
20
16.528155
11
128.793128
21
55.551654
0
LINE
8
Layer 1
10
128.793128
20
55.551654
11
143.182597
21
55.551654
0
LINE
8
Layer 1
10
143.182597
20
55.551654
11
143.165101
21
16.528155
0
LINE
8
Layer 1
10
143.165101
20
16.528155
11
128.793128
21
16.528155
0
LINE
8
Layer 1
10
64.685337
20
36.504398
11
64.284351
21
35.161423
0
LINE
8
Layer 1
10
64.284351
20
35.161423
11
63.575360
21
33.788745
0
LINE
8
Layer 1
10
63.575360
20
33.788745
11
62.615194
21
32.441683
0
LINE
8
Layer 1
10
62.615194
20
32.441683
11
61.460685
21
31.175556
0
LINE
8
Layer 1
10
61.460685
20
31.175556
11
60.168665
21
30.045683
0
LINE
8
Layer 1
10
60.168665
20
30.045683
11
58.795966
21
29.107382
0
LINE
8
Layer 1
10
58.795966
20
29.107382
11
57.399420
21
28.415973
0
LINE
8
Layer 1
10
57.399420
20
28.415973
11
56.035857
21
28.026774
0
LINE
8
Layer 1
10
56.035857
20
28.026774
11
53.998720
21
27.892246
0
LINE
8
Layer 1
10
53.998720
20
27.892246
11
52.275448
21
28.172529
0
LINE
8
Layer 1
10
52.275448
20
28.172529
11
50.831502
21
28.812583
0
LINE
8
Layer 1
10
50.831502
20
28.812583
11
49.632341
21
29.757368
0
LINE
8
Layer 1
10
49.632341
20
29.757368
11
48.818450
21
30.751493
0
LINE
8
Layer 1
10
48.818450
20
30.751493
11
48.294561
21
31.805442
0
LINE
8
Layer 1
10
48.294561
20
31.805442
11
48.035997
21
32.903328
0
LINE
8
Layer 1
10
48.035997
20
32.903328
11
48.018085
21
34.029262
0
LINE
8
Layer 1
10
48.018085
20
34.029262
11
48.216147
21
35.167356
0
LINE
8
Layer 1
10
48.216147
20
35.167356
11
48.605510
21
36.301722
0
LINE
8
Layer 1
10
48.605510
20
36.301722
11
49.859435
21
38.495714
0
LINE
8
Layer 1
10
49.859435
20
38.495714
11
51.582456
21
40.484131
0
LINE
8
Layer 1
10
51.582456
20
40.484131
11
53.577171
21
42.139868
0
LINE
8
Layer 1
10
53.577171
20
42.139868
11
55.646177
21
43.335816
0
LINE
8
Layer 1
10
55.646177
20
43.335816
11
57.592072
21
43.944869
0
LINE
8
Layer 1
10
57.592072
20
43.944869
11
59.190769
21
43.998328
0
LINE
8
Layer 1
10
59.190769
20
43.998328
11
60.663416
21
43.687082
0
LINE
8
Layer 1
10
60.663416
20
43.687082
11
61.971318
21
43.052980
0
LINE
8
Layer 1
10
61.971318
20
43.052980
11
63.075780
21
42.137873
0
LINE
8
Layer 1
10
63.075780
20
42.137873
11
63.938107
21
40.983611
0
LINE
8
Layer 1
10
63.938107
20
40.983611
11
64.519606
21
39.632044
0
LINE
8
Layer 1
10
64.519606
20
39.632044
11
64.781581
21
38.125023
0
LINE
8
Layer 1
10
64.781581
20
38.125023
11
64.685337
21
36.504398
0
LINE
8
Layer 1
10
75.760211
20
43.427167
11
74.507980
21
46.210925
0
LINE
8
Layer 1
10
74.507980
20
46.210925
11
72.854140
21
48.728712
0
LINE
8
Layer 1
10
72.854140
20
48.728712
11
70.798351
21
50.935229
0
LINE
8
Layer 1
10
70.798351
20
50.935229
11
68.340274
21
52.785181
0
LINE
8
Layer 1
10
68.340274
20
52.785181
11
65.479567
21
54.233270
0
LINE
8
Layer 1
10
65.479567
20
54.233270
11
62.215892
21
55.234198
0
LINE
8
Layer 1
10
62.215892
20
55.234198
11
58.548909
21
55.742670
0
LINE
8
Layer 1
10
58.548909
20
55.742670
11
54.478277
21
55.713387
0
LINE
8
Layer 1
10
54.478277
20
55.713387
11
51.906521
21
55.363402
0
LINE
8
Layer 1
10
51.906521
20
55.363402
11
49.456499
21
54.715762
0
LINE
8
Layer 1
10
49.456499
20
54.715762
11
47.153550
21
53.802453
0
LINE
8
Layer 1
10
47.153550
20
53.802453
11
45.023017
21
52.655464
0
LINE
8
Layer 1
10
45.023017
20
52.655464
11
43.090239
21
51.306782
0
LINE
8
Layer 1
10
43.090239
20
51.306782
11
41.380557
21
49.788397
0
LINE
8
Layer 1
10
41.380557
20
49.788397
11
39.919312
21
48.132295
0
LINE
8
Layer 1
10
39.919312
20
48.132295
11
38.731844
21
46.370465
0
LINE
8
Layer 1
10
38.731844
20
46.370465
11
37.923849
21
44.800832
0
LINE
8
Layer 1
10
37.923849
20
44.800832
11
37.218292
21
43.054788
0
LINE
8
Layer 1
10
37.218292
20
43.054788
11
36.639207
21
41.163565
0
LINE
8
Layer 1
10
36.639207
20
41.163565
11
36.210626
21
39.158394
0
LINE
8
Layer 1
10
36.210626
20
39.158394
11
35.956582
21
37.070506
0
LINE
8
Layer 1
10
35.956582
20
37.070506
11
35.901106
21
34.931134
0
LINE
8
Layer 1
10
35.901106
20
34.931134
11
36.068232
21
32.771508
0
LINE
8
Layer 1
10
36.068232
20
32.771508
11
36.481992
21
30.622861
0
LINE
8
Layer 1
10
36.481992
20
30.622861
11
37.014553
21
28.879977
0
LINE
8
Layer 1
10
37.014553
20
28.879977
11
37.686151
21
27.251071
0
LINE
8
Layer 1
10
37.686151
20
27.251071
11
38.487469
21
25.736128
0
LINE
8
Layer 1
10
38.487469
20
25.736128
11
39.409191
21
24.335134
0
LINE
8
Layer 1
10
39.409191
20
24.335134
11
40.442003
21
23.048076
0
LINE
8
Layer 1
10
40.442003
20
23.048076
11
41.576587
21
21.874939
0
LINE
8
Layer 1
10
41.576587
20
21.874939
11
44.113810
21
19.870374
0
LINE
8
Layer 1
10
44.113810
20
19.870374
11
46.946334
21
18.321327
0
LINE
8
Layer 1
10
46.946334
20
18.321327
11
49.999633
21
17.227686
0
LINE
8
Layer 1
10
49.999633
20
17.227686
11
53.199178
21
16.589339
0
LINE
8
Layer 1
10
53.199178
20
16.589339
11
56.470444
21
16.406174
0
LINE
8
Layer 1
10
56.470444
20
16.406174
11
59.738903
21
16.678079
0
LINE
8
Layer 1
10
59.738903
20
16.678079
11
62.930029
21
17.404942
0
LINE
8
Layer 1
10
62.930029
20
17.404942
11
65.969295
21
18.586652
0
LINE
8
Layer 1
10
65.969295
20
18.586652
11
68.782173
21
20.223095
0
LINE
8
Layer 1
10
68.782173
20
20.223095
11
71.294137
21
22.314161
0
LINE
8
Layer 1
10
71.294137
20
22.314161
11
72.413987
21
23.530143
0
LINE
8
Layer 1
10
72.413987
20
23.530143
11
73.430660
21
24.859738
0
LINE
8
Layer 1
10
73.430660
20
24.859738
11
74.334842
21
26.302933
0
LINE
8
Layer 1
10
74.334842
20
26.302933
11
75.117216
21
27.859713
0
LINE
8
Layer 1
10
75.117216
20
27.859713
11
75.768466
21
29.530065
0
LINE
8
Layer 1
10
75.768466
20
29.530065
11
76.279276
21
31.313974
0
LINE
8
Layer 1
10
76.279276
20
31.313974
11
76.749505
21
34.317111
0
LINE
8
Layer 1
10
76.749505
20
34.317111
11
76.819264
21
37.503616
0
LINE
8
Layer 1
10
76.819264
20
37.503616
11
76.489262
21
40.623598
0
LINE
8
Layer 1
10
76.489262
20
40.623598
11
75.760211
21
43.427167
0
LINE
8
Layer 1
10
0.577629
20
10.181767
11
9.980892
21
10.181767
0
LINE
8
Layer 1
10
9.980892
20
10.181767
11
9.980892
21
7.709740
0
LINE
8
Layer 1
10
9.980892
20
7.709740
11
6.825983
21
7.709740
0
LINE
8
Layer 1
10
6.825983
20
7.709740
11
6.825983
21
0.170741
0
LINE
8
Layer 1
10
6.825983
20
0.170741
11
3.732536
21
0.170741
0
LINE
8
Layer 1
10
3.732536
20
0.170741
11
3.732536
21
7.709740
0
LINE
8
Layer 1
10
3.732536
20
7.709740
11
0.577629
21
7.709740
0
LINE
8
Layer 1
10
0.577629
20
7.709740
11
0.577629
21
10.181767
0
LINE
8
Layer 1
10
16.528836
20
10.181767
11
19.622283
21
10.181767
0
LINE
8
Layer 1
10
19.622283
20
10.181767
11
19.622283
21
6.678591
0
LINE
8
Layer 1
10
19.622283
20
6.678591
11
23.002542
21
6.678591
0
LINE
8
Layer 1
10
23.002542
20
6.678591
11
23.002542
21
10.181767
0
LINE
8
Layer 1
10
23.002542
20
10.181767
11
26.109647
21
10.181767
0
LINE
8
Layer 1
10
26.109647
20
10.181767
11
26.109647
21
0.170741
0
LINE
8
Layer 1
10
26.109647
20
0.170741
11
23.002542
21
0.170741
0
LINE
8
Layer 1
10
23.002542
20
0.170741
11
23.002542
21
4.220222
0
LINE
8
Layer 1
10
23.002542
20
4.220222
11
19.622283
21
4.220222
0
LINE
8
Layer 1
10
19.622283
20
4.220222
11
19.622283
21
0.170741
0
LINE
8
Layer 1
10
19.622283
20
0.170741
11
16.528836
21
0.170741
0
LINE
8
Layer 1
10
16.528836
20
0.170741
11
16.528836
21
10.181767
0
LINE
8
Layer 1
10
34.341571
20
10.181767
11
42.631740
21
10.181767
0
LINE
8
Layer 1
10
42.631740
20
10.181767
11
42.631740
21
8.044350
0
LINE
8
Layer 1
10
42.631740
20
8.044350
11
37.441850
21
8.044350
0
LINE
8
Layer 1
10
37.441850
20
8.044350
11
37.441850
21
6.453241
0
LINE
8
Layer 1
10
37.441850
20
6.453241
11
42.256156
21
6.453241
0
LINE
8
Layer 1
10
42.256156
20
6.453241
11
42.256156
21
4.411427
0
LINE
8
Layer 1
10
42.256156
20
4.411427
11
37.441850
21
4.411427
0
LINE
8
Layer 1
10
37.441850
20
4.411427
11
37.441850
21
2.437903
0
LINE
8
Layer 1
10
37.441850
20
2.437903
11
42.781973
21
2.437903
0
LINE
8
Layer 1
10
42.781973
20
2.437903
11
42.781973
21
0.170741
0
LINE
8
Layer 1
10
42.781973
20
0.170741
11
34.341571
21
0.170741
0
LINE
8
Layer 1
10
34.341571
20
0.170741
11
34.341571
21
10.181767
0
LINE
8
Layer 1
10
56.247986
20
10.181767
11
59.341434
21
10.181767
0
LINE
8
Layer 1
10
59.341434
20
10.181767
11
59.341434
21
6.678591
0
LINE
8
Layer 1
10
59.341434
20
6.678591
11
62.721693
21
6.678591
0
LINE
8
Layer 1
10
62.721693
20
6.678591
11
62.721693
21
10.181767
0
LINE
8
Layer 1
10
62.721693
20
10.181767
11
65.828798
21
10.181767
0
LINE
8
Layer 1
10
65.828798
20
10.181767
11
65.828798
21
0.170741
0
LINE
8
Layer 1
10
65.828798
20
0.170741
11
62.721693
21
0.170741
0
LINE
8
Layer 1
10
62.721693
20
0.170741
11
62.721693
21
4.220222
0
LINE
8
Layer 1
10
62.721693
20
4.220222
11
59.341434
21
4.220222
0
LINE
8
Layer 1
10
59.341434
20
4.220222
11
59.341434
21
0.170741
0
LINE
8
Layer 1
10
59.341434
20
0.170741
11
56.247986
21
0.170741
0
LINE
8
Layer 1
10
56.247986
20
0.170741
11
56.247986
21
10.181767
0
LINE
8
Layer 1
10
74.060726
20
10.181767
11
82.350895
21
10.181767
0
LINE
8
Layer 1
10
82.350895
20
10.181767
11
82.350895
21
8.044350
0
LINE
8
Layer 1
10
82.350895
20
8.044350
11
77.161004
21
8.044350
0
LINE
8
Layer 1
10
77.161004
20
8.044350
11
77.161004
21
6.453241
0
LINE
8
Layer 1
10
77.161004
20
6.453241
11
81.975309
21
6.453241
0
LINE
8
Layer 1
10
81.975309
20
6.453241
11
81.975309
21
4.411427
0
LINE
8
Layer 1
10
81.975309
20
4.411427
11
77.161004
21
4.411427
0
LINE
8
Layer 1
10
77.161004
20
4.411427
11
77.161004
21
2.437903
0
LINE
8
Layer 1
10
77.161004
20
2.437903
11
82.501128
21
2.437903
0
LINE
8
Layer 1
10
82.501128
20
2.437903
11
82.501128
21
0.170741
0
LINE
8
Layer 1
10
82.501128
20
0.170741
11
74.060726
21
0.170741
0
LINE
8
Layer 1
10
74.060726
20
0.170741
11
74.060726
21
10.181767
0
LINE
8
Layer 1
10
89.342712
20
10.181767
11
93.938495
21
10.181767
0
LINE
8
Layer 1
10
93.938495
20
10.181767
11
95.165973
21
10.089578
0
LINE
8
Layer 1
10
95.165973
20
10.089578
11
96.130542
21
9.813012
0
LINE
8
Layer 1
10
96.130542
20
9.813012
11
96.897076
21
9.364017
0
LINE
8
Layer 1
10
96.897076
20
9.364017
11
97.516790
21
8.754548
0
LINE
8
Layer 1
10
97.516790
20
8.754548
11
97.987976
21
8.008501
0
LINE
8
Layer 1
10
97.987976
20
8.008501
11
98.308930
21
7.149779
0
LINE
8
Layer 1
10
98.308930
20
7.149779
11
98.554766
21
5.210398
0
LINE
8
Layer 1
10
98.554766
20
5.210398
11
98.462577
21
3.784885
0
LINE
8
Layer 1
10
98.462577
20
3.784885
11
98.186011
21
2.717884
0
LINE
8
Layer 1
10
98.186011
20
2.717884
11
97.752383
21
1.906964
0
LINE
8
Layer 1
10
97.752383
20
1.906964
11
97.175349
21
1.236034
0
LINE
8
Layer 1
10
97.175349
20
1.236034
11
96.502711
21
0.740945
0
LINE
8
Layer 1
10
96.502711
20
0.740945
11
95.782273
21
0.443893
0
LINE
8
Layer 1
10
95.782273
20
0.443893
11
93.938495
21
0.170741
0
LINE
8
Layer 1
10
93.938495
20
0.170741
11
89.342712
21
0.170741
0
LINE
8
Layer 1
10
89.342712
20
0.170741
11
89.342712
21
10.181767
0
LINE
8
Layer 1
10
92.436159
20
7.914605
11
92.436159
21
2.444731
0
LINE
8
Layer 1
10
92.436159
20
2.444731
11
93.194157
21
2.444731
0
LINE
8
Layer 1
10
93.194157
20
2.444731
11
94.573574
21
2.656424
0
LINE
8
Layer 1
10
94.573574
20
2.656424
11
94.938915
21
2.953477
0
LINE
8
Layer 1
10
94.938915
20
2.953477
11
95.215483
21
3.407593
0
LINE
8
Layer 1
10
95.215483
20
3.407593
11
95.389617
21
4.112668
0
LINE
8
Layer 1
10
95.389617
20
4.112668
11
95.447661
21
5.148938
0
LINE
8
Layer 1
10
95.447661
20
5.148938
11
95.317914
21
6.489091
0
LINE
8
Layer 1
10
95.317914
20
6.489091
11
94.928673
21
7.327326
0
LINE
8
Layer 1
10
94.928673
20
7.327326
11
94.238963
21
7.767785
0
LINE
8
Layer 1
10
94.238963
20
7.767785
11
93.207814
21
7.914605
0
LINE
8
Layer 1
10
93.207814
20
7.914605
11
92.436159
21
7.914605
0
LINE
8
Layer 1
10
110.347227
20
3.796836
11
110.347227
21
5.879619
0
LINE
8
Layer 1
10
110.347227
20
5.879619
11
115.127391
21
5.879619
0
LINE
8
Layer 1
10
115.127391
20
5.879619
11
115.127391
21
1.611617
0
LINE
8
Layer 1
10
115.127391
20
1.611617
11
113.833332
21
0.824598
0
LINE
8
Layer 1
10
113.833332
20
0.824598
11
112.696336
21
0.334631
0
LINE
8
Layer 1
10
112.696336
20
0.334631
11
111.545683
21
0.083673
0
LINE
8
Layer 1
10
111.545683
20
0.083673
11
110.196993
21
0.000020
0
LINE
8
Layer 1
10
110.196993
20
0.000020
11
108.578567
21
0.151961
0
LINE
8
Layer 1
10
108.578567
20
0.151961
11
107.287922
21
0.607784
0
LINE
8
Layer 1
10
107.287922
20
0.607784
11
106.292624
21
1.364074
0
LINE
8
Layer 1
10
106.292624
20
1.364074
11
105.546577
21
2.417417
0
LINE
8
Layer 1
10
105.546577
20
2.417417
11
105.085634
21
3.708060
0
LINE
8
Layer 1
10
105.085634
20
3.708060
11
104.931986
21
5.176253
0
LINE
8
Layer 1
10
104.931986
20
5.176253
11
105.100999
21
6.707613
0
LINE
8
Layer 1
10
105.100999
20
6.707613
11
105.608037
21
8.023864
0
LINE
8
Layer 1
10
105.608037
20
8.023864
11
106.441151
21
9.092572
0
LINE
8
Layer 1
10
106.441151
20
9.092572
11
107.588391
21
9.867641
0
LINE
8
Layer 1
10
107.588391
20
9.867641
11
108.781724
21
10.231275
0
LINE
8
Layer 1
10
108.781724
20
10.231275
11
110.326741
21
10.352486
0
LINE
8
Layer 1
10
110.326741
20
10.352486
11
111.776155
21
10.277369
0
LINE
8
Layer 1
10
111.776155
20
10.277369
11
112.805596
21
10.052019
0
LINE
8
Layer 1
10
112.805596
20
10.052019
11
113.560179
21
9.667899
0
LINE
8
Layer 1
10
113.560179
20
9.667899
11
114.171357
21
9.116474
0
LINE
8
Layer 1
10
114.171357
20
9.116474
11
114.649374
21
8.402864
0
LINE
8
Layer 1
10
114.649374
20
8.402864
11
114.990814
21
7.518533
0
LINE
8
Layer 1
10
114.990814
20
7.518533
11
112.006627
21
6.985886
0
LINE
8
Layer 1
10
112.006627
20
6.985886
11
111.757373
21
7.486096
0
LINE
8
Layer 1
10
111.757373
20
7.486096
11
111.378377
21
7.853145
0
LINE
8
Layer 1
10
111.378377
20
7.853145
11
110.879874
21
8.078495
0
LINE
8
Layer 1
10
110.879874
20
8.078495
11
110.258453
21
8.153612
0
LINE
8
Layer 1
10
110.258453
20
8.153612
11
109.343393
21
7.976063
0
LINE
8
Layer 1
10
109.343393
20
7.976063
11
108.633198
21
7.443417
0
LINE
8
Layer 1
10
108.633198
20
7.443417
11
108.182496
21
6.533479
0
LINE
8
Layer 1
10
108.182496
20
6.533479
11
108.032263
21
5.210398
0
LINE
8
Layer 1
10
108.032263
20
5.210398
11
108.184204
21
3.817322
0
LINE
8
Layer 1
10
108.184204
20
3.817322
11
108.640027
21
2.888605
0
LINE
8
Layer 1
10
108.640027
20
2.888605
11
109.374123
21
2.366201
0
LINE
8
Layer 1
10
109.374123
20
2.366201
11
110.347227
21
2.192067
0
LINE
8
Layer 1
10
110.347227
20
2.192067
11
111.337403
21
2.342296
0
LINE
8
Layer 1
10
111.337403
20
2.342296
11
112.416355
21
2.854456
0
LINE
8
Layer 1
10
112.416355
20
2.854456
11
112.416355
21
3.796832
0
LINE
8
Layer 1
10
112.416355
20
3.796832
11
110.347227
21
3.796836
0
LINE
8
Layer 1
10
123.140793
20
10.181767
11
131.430960
21
10.181767
0
LINE
8
Layer 1
10
131.430960
20
10.181767
11
131.430960
21
8.044350
0
LINE
8
Layer 1
10
131.430960
20
8.044350
11
126.241070
21
8.044350
0
LINE
8
Layer 1
10
126.241070
20
8.044350
11
126.241070
21
6.453241
0
LINE
8
Layer 1
10
126.241070
20
6.453241
11
131.055376
21
6.453241
0
LINE
8
Layer 1
10
131.055376
20
6.453241
11
131.055376
21
4.411427
0
LINE
8
Layer 1
10
131.055376
20
4.411427
11
126.241070
21
4.411427
0
LINE
8
Layer 1
10
126.241070
20
4.411427
11
126.241070
21
2.437903
0
LINE
8
Layer 1
10
126.241070
20
2.437903
11
131.581193
21
2.437903
0
LINE
8
Layer 1
10
131.581193
20
2.437903
11
131.581193
21
0.170741
0
LINE
8
Layer 1
10
131.581193
20
0.170741
11
123.140793
21
0.170741
0
LINE
8
Layer 1
10
123.140793
20
0.170741
11
123.140793
21
10.181767
0
LINE
8
Layer 1
10
138.395462
20
10.181767
11
141.488910
21
10.181767
0
LINE
8
Layer 1
10
141.488910
20
10.181767
11
141.488910
21
6.678591
0
LINE
8
Layer 1
10
141.488910
20
6.678591
11
144.869167
21
6.678591
0
LINE
8
Layer 1
10
144.869167
20
6.678591
11
144.869167
21
10.181767
0
LINE
8
Layer 1
10
144.869167
20
10.181767
11
147.976274
21
10.181767
0
LINE
8
Layer 1
10
147.976274
20
10.181767
11
147.976274
21
0.170741
0
LINE
8
Layer 1
10
147.976274
20
0.170741
11
144.869167
21
0.170741
0
LINE
8
Layer 1
10
144.869167
20
0.170741
11
144.869167
21
4.220222
0
LINE
8
Layer 1
10
144.869167
20
4.220222
11
141.488910
21
4.220222
0
LINE
8
Layer 1
10
141.488910
20
4.220222
11
141.488910
21
0.170741
0
LINE
8
Layer 1
10
141.488910
20
0.170741
11
138.395462
21
0.170741
0
LINE
8
Layer 1
10
138.395462
20
0.170741
11
138.395462
21
10.181767
0
LINE
8
Layer 1
10
154.776882
20
5.169424
11
154.862242
21
6.327333
0
LINE
8
Layer 1
10
154.862242
20
6.327333
11
155.118322
21
7.349520
0
LINE
8
Layer 1
10
155.118322
20
7.349520
11
155.545121
21
8.235984
0
LINE
8
Layer 1
10
155.545121
20
8.235984
11
156.142641
21
8.986726
0
LINE
8
Layer 1
10
156.142641
20
8.986726
11
156.892530
21
9.584246
0
LINE
8
Layer 1
10
156.892530
20
9.584246
11
157.776433
21
10.011046
0
LINE
8
Layer 1
10
157.776433
20
10.011046
11
158.794352
21
10.267126
0
LINE
8
Layer 1
10
158.794352
20
10.267126
11
159.946286
21
10.352486
0
LINE
8
Layer 1
10
159.946286
20
10.352486
11
161.124254
21
10.268406
0
LINE
8
Layer 1
10
161.124254
20
10.268406
11
162.158818
21
10.016167
0
LINE
8
Layer 1
10
162.158818
20
10.016167
11
163.049977
21
9.595769
0
LINE
8
Layer 1
10
163.049977
20
9.595769
11
163.797731
21
9.007212
0
LINE
8
Layer 1
10
163.797731
20
9.007212
11
164.389276
21
8.270555
0
LINE
8
Layer 1
10
164.389276
20
8.270555
11
164.811808
21
7.399029
0
LINE
8
Layer 1
10
164.811808
20
7.399029
11
165.065327
21
6.392634
0
LINE
8
Layer 1
10
165.065327
20
6.392634
11
165.149834
21
5.251369
0
LINE
8
Layer 1
10
165.149834
20
5.251369
11
165.001307
21
3.653430
0
LINE
8
Layer 1
10
165.001307
20
3.653430
11
164.555727
21
2.369615
0
LINE
8
Layer 1
10
164.555727
20
2.369615
11
163.835289
21
1.372609
0
LINE
8
Layer 1
10
163.835289
20
1.372609
11
162.848527
21
0.621441
0
LINE
8
Layer 1
10
162.848527
20
0.621441
11
161.597148
21
0.155375
0
LINE
8
Layer 1
10
161.597148
20
0.155375
11
160.069203
21
0.000020
0
LINE
8
Layer 1
10
160.069203
20
0.000020
11
158.520772
21
0.134889
0
LINE
8
Layer 1
10
158.520772
20
0.134889
11
157.262565
21
0.539496
0
LINE
8
Layer 1
10
157.262565
20
0.539496
11
156.260438
21
1.236034
0
LINE
8
Layer 1
10
156.260438
20
1.236034
11
155.466589
21
2.246696
0
LINE
8
Layer 1
10
155.466589
20
2.246696
11
154.949309
21
3.561241
0
LINE
8
Layer 1
10
154.949309
20
3.561241
11
154.776882
21
5.169424
0
LINE
8
Layer 1
10
154.776882
20
5.169424
11
154.776882
21
5.169424
0
LINE
8
Layer 1
10
157.870329
20
5.155747
11
158.010320
21
3.853153
0
LINE
8
Layer 1
10
158.010320
20
3.853153
11
158.430291
21
2.977359
0
LINE
8
Layer 1
10
158.430291
20
2.977359
11
159.097807
21
2.480563
0
LINE
8
Layer 1
10
159.097807
20
2.480563
11
159.966772
21
2.314964
0
LINE
8
Layer 1
10
159.966772
20
2.314964
11
160.851102
21
2.477148
0
LINE
8
Layer 1
10
160.851102
20
2.477148
11
161.510082
21
2.963702
0
LINE
8
Layer 1
10
161.510082
20
2.963702
11
161.919810
21
3.870225
0
LINE
8
Layer 1
10
161.919810
20
3.870225
11
162.056386
21
5.292323
0
LINE
8
Layer 1
10
162.056386
20
5.292323
11
161.912981
21
6.514679
0
LINE
8
Layer 1
10
161.912981
20
6.514679
11
161.482765
21
7.354623
0
LINE
8
Layer 1
10
161.482765
20
7.354623
11
160.813542
21
7.846296
0
LINE
8
Layer 1
10
160.813542
20
7.846296
11
159.939456
21
8.010187
0
LINE
8
Layer 1
10
159.939456
20
8.010187
11
159.096099
21
7.844589
0
LINE
8
Layer 1
10
159.096099
20
7.844589
11
158.437120
21
7.347792
0
LINE
8
Layer 1
10
158.437120
20
7.347792
11
158.012027
21
6.468585
0
LINE
8
Layer 1
10
158.012027
20
6.468585
11
157.870329
21
5.155747
0
LINE
8
Layer 1
10
157.870329
20
5.155747
11
157.870329
21
5.155747
0
LINE
8
Layer 1
10
176.983276
20
3.796836
11
176.983276
21
5.879619
0
LINE
8
Layer 1
10
176.983276
20
5.879619
11
181.763442
21
5.879619
0
LINE
8
Layer 1
10
181.763442
20
5.879619
11
181.763442
21
1.611617
0
LINE
8
Layer 1
10
181.763442
20
1.611617
11
180.469376
21
0.824598
0
LINE
8
Layer 1
10
180.469376
20
0.824598
11
179.332377
21
0.334631
0
LINE
8
Layer 1
10
179.332377
20
0.334631
11
178.181727
21
0.083673
0
LINE
8
Layer 1
10
178.181727
20
0.083673
11
176.833027
21
0.000020
0
LINE
8
Layer 1
10
176.833027
20
0.000020
11
175.214601
21
0.151961
0
LINE
8
Layer 1
10
175.214601
20
0.151961
11
173.923959
21
0.607784
0
LINE
8
Layer 1
10
173.923959
20
0.607784
11
172.928666
21
1.364074
0
LINE
8
Layer 1
10
172.928666
20
1.364074
11
172.182620
21
2.417417
0
LINE
8
Layer 1
10
172.182620
20
2.417417
11
171.721676
21
3.708060
0
LINE
8
Layer 1
10
171.721676
20
3.708060
11
171.568028
21
5.176253
0
LINE
8
Layer 1
10
171.568028
20
5.176253
11
171.737041
21
6.707613
0
LINE
8
Layer 1
10
171.737041
20
6.707613
11
172.244080
21
8.023864
0
LINE
8
Layer 1
10
172.244080
20
8.023864
11
173.077195
21
9.092572
0
LINE
8
Layer 1
10
173.077195
20
9.092572
11
174.224438
21
9.867641
0
LINE
8
Layer 1
10
174.224438
20
9.867641
11
175.417770
21
10.231275
0
LINE
8
Layer 1
10
175.417770
20
10.231275
11
176.962780
21
10.352486
0
LINE
8
Layer 1
10
176.962780
20
10.352486
11
178.412195
21
10.277369
0
LINE
8
Layer 1
10
178.412195
20
10.277369
11
179.441635
21
10.052019
0
LINE
8
Layer 1
10
179.441635
20
10.052019
11
180.196221
21
9.667899
0
LINE
8
Layer 1
10
180.196221
20
9.667899
11
180.807397
21
9.116474
0
LINE
8
Layer 1
10
180.807397
20
9.116474
11
181.285414
21
8.402864
0
LINE
8
Layer 1
10
181.285414
20
8.402864
11
181.626850
21
7.518533
0
LINE
8
Layer 1
10
181.626850
20
7.518533
11
178.642678
21
6.985886
0
LINE
8
Layer 1
10
178.642678
20
6.985886
11
178.393443
21
7.486096
0
LINE
8
Layer 1
10
178.393443
20
7.486096
11
178.014426
21
7.853145
0
LINE
8
Layer 1
10
178.014426
20
7.853145
11
177.515917
21
8.078495
0
LINE
8
Layer 1
10
177.515917
20
8.078495
11
176.894494
21
8.153612
0
LINE
8
Layer 1
10
176.894494
20
8.153612
11
175.979436
21
7.976063
0
LINE
8
Layer 1
10
175.979436
20
7.976063
11
175.269245
21
7.443417
0
LINE
8
Layer 1
10
175.269245
20
7.443417
11
174.818542
21
6.533479
0
LINE
8
Layer 1
10
174.818542
20
6.533479
11
174.668308
21
5.210398
0
LINE
8
Layer 1
10
174.668308
20
5.210398
11
174.820247
21
3.817322
0
LINE
8
Layer 1
10
174.820247
20
3.817322
11
175.276064
21
2.888605
0
LINE
8
Layer 1
10
175.276064
20
2.888605
11
176.010164
21
2.366201
0
LINE
8
Layer 1
10
176.010164
20
2.366201
11
176.983276
21
2.192067
0
LINE
8
Layer 1
10
176.983276
20
2.192067
11
177.973454
21
2.342296
0
LINE
8
Layer 1
10
177.973454
20
2.342296
11
179.052394
21
2.854456
0
LINE
8
Layer 1
10
179.052394
20
2.854456
11
179.052394
21
3.796832
0
LINE
8
Layer 1
10
179.052394
20
3.796832
11
176.983276
21
3.796836
 0 
ENDSEC
 0 
EOF