  0
SECTION
  2
HEADER
  9
$ACADVER
  1
AC1014
  9
$HANDSEED
  5
FFFF
  9
$INSUNITS
 70
     4
  9
$MEASUREMENT
 70
     1
  0
ENDSEC
  0
SECTION
  2
TABLES
  0
TABLE
  2
VPORT
  5
8
330
0
100
AcDbSymbolTable
 70
     4
  0
VPORT
  5
2E
330
8
100
AcDbSymbolTableRecord
100
AcDbViewportTableRecord
  2
*ACTIVE
 70
     0
 10
0.0
 20
0.0
 11
1.0
 21
1.0
 12
210.0
 22
148.5
 13
0.0
 23
0.0
 14
10.0
 24
10.0
 15
10.0
 25
10.0
 16
0.0
 26
0.0
 36
1.0
 17
0.0
 27
0.0
 37
0.0
 40
341.0
 41
1.24
 42
50.0
 43
0.0
 44
0.0
 50
0.0
 51
0.0
 71
     0
 72
   100
 73
     1
 74
     3
 75
     0
 76
     0
 77
     0
 78
     0
  0
ENDTAB
  0
TABLE
  2
LTYPE
  5
5
330
0
100
AcDbSymbolTable
 70
     1
  0
LTYPE
  5
14
330
5
100
AcDbSymbolTableRecord
100
AcDbLinetypeTableRecord
  2
BYBLOCK
 70
     0
  3

 72
    65
 73
     0
 40
0.0
  0
LTYPE
  5
15
330
5
100
AcDbSymbolTableRecord
100
AcDbLinetypeTableRecord
  2
BYLAYER
 70
     0
  3

 72
    65
 73
     0
 40
0.0
  0
LTYPE
  5
16
330
5
100
AcDbSymbolTableRecord
100
AcDbLinetypeTableRecord
  2
CONTINUOUS
 70
     0
  3
Solid line
 72
    65
 73
     0
 40
0.0
  0
ENDTAB
  0
TABLE
  2
LAYER
  5
2
100
AcDbSymbolTable
 70
2
  0
LAYER
  5
50
100
AcDbSymbolTableRecord
100
AcDbLayerTableRecord
  2
0
 70
0
  6
CONTINUOUS
  0
LAYER
  5
51
100
AcDbSymbolTableRecord
100
AcDbLayerTableRecord
  2
Layer_1
 70
0
  6
CONTINUOUS
  0
ENDTAB
  0
TABLE
  2
STYLE
  5
3
330
0
100
AcDbSymbolTable
 70
     1
  0
STYLE
  5
11
330
3
100
AcDbSymbolTableRecord
100
AcDbTextStyleTableRecord
  2
STANDARD
 70
     0
 40
0.0
 41
1.0
 50
0.0
 71
     0
 42
2.5
  3
txt
  4

  0
ENDTAB
  0
TABLE
  2
VIEW
  5
6
330
0
100
AcDbSymbolTable
 70
     0
  0
ENDTAB
  0
TABLE
  2
UCS
  5
7
330
0
100
AcDbSymbolTable
 70
     0
  0
ENDTAB
  0
TABLE
  2
APPID
  5
9
330
0
100
AcDbSymbolTable
 70
     2
  0
APPID
  5
12
330
9
100
AcDbSymbolTableRecord
100
AcDbRegAppTableRecord
  2
ACAD
 70
     0
  0
ENDTAB
  0
TABLE
  2
DIMSTYLE
  5
A
330
0
100
AcDbSymbolTable
 70
     1
  0
DIMSTYLE
105
27
330
A
100
AcDbSymbolTableRecord
100
AcDbDimStyleTableRecord
  2
ISO-25
 70
     0
  3

  4

  5

  6

  7

 40
1.0
 41
2.5
 42
0.625
 43
3.75
 44
1.25
 45
0.0
 46
0.0
 47
0.0
 48
0.0
140
2.5
141
2.5
142
0.0
143
0.03937007874016
144
1.0
145
0.0
146
1.0
147
0.625
 71
     0
 72
     0
 73
     0
 74
     0
 75
     0
 76
     0
 77
     1
 78
     8
170
     0
171
     3
172
     1
173
     0
174
     0
175
     0
176
     0
177
     0
178
     0
270
     2
271
     2
272
     2
273
     2
274
     3
340
11
275
     0
280
     0
281
     0
282
     0
283
     0
284
     8
285
     0
286
     0
287
     3
288
     0
  0
ENDTAB
  0
TABLE
  2
BLOCK_RECORD
  5
1
330
0
100
AcDbSymbolTable
 70
     1
  0
BLOCK_RECORD
  5
1F
330
1
100
AcDbSymbolTableRecord
100
AcDbBlockTableRecord
  2
*MODEL_SPACE
  0
BLOCK_RECORD
  5
1B
330
1
100
AcDbSymbolTableRecord
100
AcDbBlockTableRecord
  2
*PAPER_SPACE
  0
ENDTAB
  0
ENDSEC
  0
SECTION
  2
BLOCKS
  0
BLOCK
  5
20
330
1F
100
AcDbEntity
  8
0
100
AcDbBlockBegin
  2
*MODEL_SPACE
 70
     0
 10
0.0
 20
0.0
 30
0.0
  3
*MODEL_SPACE
  1

  0
ENDBLK
  5
21
330
1F
100
AcDbEntity
  8
0
100
AcDbBlockEnd
  0
BLOCK
  5
1C
330
1B
100
AcDbEntity
 67
     1
  8
0
100
AcDbBlockBegin
  2
*PAPER_SPACE
  1

  0
ENDBLK
  5
1D
330
1B
100
AcDbEntity
 67
     1
  8
0
100
AcDbBlockEnd
  0
ENDSEC
  0
SECTION
  2
ENTITIES
  0
SPLINE
  5
100
100
AcDbEntity
  8
Layer_1
 62
7
100
AcDbSpline
 70
8
 71
3
 72
8
 73
4
 74
0
 40
0
 40
0
 40
0
 40
0
 40
1
 40
1
 40
1
 40
1
 10
165.565818
 20
55.492754
 30
0.0
 10
170.366271
 20
55.914029
 30
0.0
 10
174.941395
 20
55.720984
 30
0.0
 10
179.227680
 20
55.127855
 30
0.0
  0
SPLINE
  5
101
100
AcDbEntity
  8
Layer_1
 62
7
100
AcDbSpline
 70
8
 71
3
 72
8
 73
4
 74
0
 40
0
 40
0
 40
0
 40
0
 40
1
 40
1
 40
1
 40
1
 10
179.227680
 20
55.127855
 30
0.0
 10
179.227680
 20
55.127855
 30
0.0
 10
180.449120
 20
54.655061
 30
0.0
 10
179.937638
 20
54.774232
 30
0.0
  0
SPLINE
  5
102
100
AcDbEntity
  8
Layer_1
 62
7
100
AcDbSpline
 70
8
 71
3
 72
8
 73
4
 74
0
 40
0
 40
0
 40
0
 40
0
 40
1
 40
1
 40
1
 40
1
 10
179.937638
 20
54.774232
 30
0.0
 10
178.653602
 20
50.412361
 30
0.0
 10
177.176124
 20
46.062154
 30
0.0
 10
176.034745
 20
41.464664
 30
0.0
  0
SPLINE
  5
103
100
AcDbEntity
  8
Layer_1
 62
7
100
AcDbSpline
 70
8
 71
3
 72
8
 73
4
 74
0
 40
0
 40
0
 40
0
 40
0
 40
1
 40
1
 40
1
 40
1
 10
176.034745
 20
41.464664
 30
0.0
 10
169.543346
 20
50.042602
 30
0.0
 10
153.822391
 20
34.394145
 30
0.0
 10
162.902081
 20
29.575814
 30
0.0
  0
SPLINE
  5
104
100
AcDbEntity
  8
Layer_1
 62
7
100
AcDbSpline
 70
8
 71
3
 72
8
 73
4
 74
0
 40
0
 40
0
 40
0
 40
0
 40
1
 40
1
 40
1
 40
1
 10
162.902081
 20
29.575814
 30
0.0
 10
165.635995
 20
28.129826
 30
0.0
 10
169.568436
 20
28.373027
 30
0.0
 10
171.775893
 20
30.107510
 30
0.0
  0
SPLINE
  5
105
100
AcDbEntity
  8
Layer_1
 62
7
100
AcDbSpline
 70
8
 71
3
 72
8
 73
4
 74
0
 40
0
 40
0
 40
0
 40
0
 40
1
 40
1
 40
1
 40
1
 10
171.775893
 20
30.107510
 30
0.0
 10
173.017574
 20
31.090618
 30
0.0
 10
174.188464
 20
32.398771
 30
0.0
 10
175.146887
 20
33.656574
 30
0.0
  0
SPLINE
  5
106
100
AcDbEntity
  8
Layer_1
 62
7
100
AcDbSpline
 70
8
 71
3
 72
8
 73
4
 74
0
 40
0
 40
0
 40
0
 40
0
 40
1
 40
1
 40
1
 40
1
 10
175.146887
 20
33.656574
 30
0.0
 10
176.872236
 20
28.546048
 30
0.0
 10
178.389972
 20
23.478486
 30
0.0
 10
179.937638
 20
18.218656
 30
0.0
  0
SPLINE
  5
107
100
AcDbEntity
  8
Layer_1
 62
7
100
AcDbSpline
 70
8
 71
3
 72
8
 73
4
 74
0
 40
0
 40
0
 40
0
 40
0
 40
1
 40
1
 40
1
 40
1
 10
179.937638
 20
18.218656
 30
0.0
 10
174.630153
 20
17.503830
 30
0.0
 10
168.199239
 20
15.683230
 30
0.0
 10
162.194649
 20
16.977191
 30
0.0
  0
SPLINE
  5
108
100
AcDbEntity
  8
Layer_1
 62
7
100
AcDbSpline
 70
8
 71
3
 72
8
 73
4
 74
0
 40
0
 40
0
 40
0
 40
0
 40
1
 40
1
 40
1
 40
1
 10
162.194649
 20
16.977191
 30
0.0
 10
140.351265
 20
21.684904
 30
0.0
 10
142.882043
 20
53.515068
 30
0.0
 10
165.565818
 20
55.492754
 30
0.0
  0
SPLINE
  5
109
100
AcDbEntity
  8
Layer_1
 62
7
100
AcDbSpline
 70
8
 71
3
 72
8
 73
4
 74
0
 40
0
 40
0
 40
0
 40
0
 40
1
 40
1
 40
1
 40
1
 10
15.160741
 20
55.482645
 30
0.0
 10
19.131081
 20
55.774834
 30
0.0
 10
23.208340
 20
55.238082
 30
0.0
 10
26.340987
 20
54.771508
 30
0.0
  0
SPLINE
  5
10a
100
AcDbEntity
  8
Layer_1
 62
7
100
AcDbSpline
 70
8
 71
3
 72
8
 73
4
 74
0
 40
0
 40
0
 40
0
 40
0
 40
1
 40
1
 40
1
 40
1
 10
26.340987
 20
54.771508
 30
0.0
 10
28.154401
 20
54.506925
 30
0.0
 10
30.308527
 20
53.607800
 30
0.0
 10
29.919911
 20
53.708114
 30
0.0
  0
SPLINE
  5
10b
100
AcDbEntity
  8
Layer_1
 62
7
100
AcDbSpline
 70
8
 71
3
 72
8
 73
4
 74
0
 40
0
 40
0
 40
0
 40
0
 40
1
 40
1
 40
1
 40
1
 10
29.919911
 20
53.708114
 30
0.0
 10
29.054610
 20
50.774734
 30
0.0
 10
27.980254
 20
46.834618
 30
0.0
 10
27.186302
 20
43.834749
 30
0.0
  0
SPLINE
  5
10c
100
AcDbEntity
  8
Layer_1
 62
7
100
AcDbSpline
 70
8
 71
3
 72
8
 73
4
 74
0
 40
0
 40
0
 40
0
 40
0
 40
1
 40
1
 40
1
 40
1
 10
27.186302
 20
43.834749
 30
0.0
 10
24.612959
 20
44.217145
 30
0.0
 10
15.864294
 20
46.375341
 30
0.0
 10
14.629043
 20
44.479308
 30
0.0
  0
SPLINE
  5
10d
100
AcDbEntity
  8
Layer_1
 62
7
100
AcDbSpline
 70
8
 71
3
 72
8
 73
4
 74
0
 40
0
 40
0
 40
0
 40
0
 40
1
 40
1
 40
1
 40
1
 10
14.629043
 20
44.479308
 30
0.0
 10
14.202712
 20
43.837187
 30
0.0
 10
14.329270
 20
43.057235
 30
0.0
 10
14.452133
 20
42.173077
 30
0.0
  0
SPLINE
  5
10e
100
AcDbEntity
  8
Layer_1
 62
7
100
AcDbSpline
 70
8
 71
3
 72
8
 73
4
 74
0
 40
0
 40
0
 40
0
 40
0
 40
1
 40
1
 40
1
 40
1
 10
14.452133
 20
42.173077
 30
0.0
 10
15.022908
 20
40.246718
 30
0.0
 10
24.943796
 20
40.891364
 30
0.0
 10
28.293593
 20
38.447106
 30
0.0
  0
SPLINE
  5
10f
100
AcDbEntity
  8
Layer_1
 62
7
100
AcDbSpline
 70
8
 71
3
 72
8
 73
4
 74
0
 40
0
 40
0
 40
0
 40
0
 40
1
 40
1
 40
1
 40
1
 10
28.293593
 20
38.447106
 30
0.0
 10
30.154829
 20
37.087632
 30
0.0
 10
31.534134
 20
35.071065
 30
0.0
 10
32.019564
 20
32.235471
 30
0.0
  0
SPLINE
  5
110
100
AcDbEntity
  8
Layer_1
 62
7
100
AcDbSpline
 70
8
 71
3
 72
8
 73
4
 74
0
 40
0
 40
0
 40
0
 40
0
 40
1
 40
1
 40
1
 40
1
 10
32.019564
 20
32.235471
 30
0.0
 10
33.584722
 20
23.056822
 30
0.0
 10
27.327982
 20
17.035895
 30
0.0
 10
19.419774
 20
16.440244
 30
0.0
  0
SPLINE
  5
111
100
AcDbEntity
  8
Layer_1
 62
7
100
AcDbSpline
 70
8
 71
3
 72
8
 73
4
 74
0
 40
0
 40
0
 40
0
 40
0
 40
1
 40
1
 40
1
 40
1
 10
19.419774
 20
16.440244
 30
0.0
 10
14.984222
 20
16.114423
 30
0.0
 10
10.609909
 20
16.491682
 30
0.0
 10
6.467524
 20
16.797564
 30
0.0
  0
SPLINE
  5
112
100
AcDbEntity
  8
Layer_1
 62
7
100
AcDbSpline
 70
8
 71
3
 72
8
 73
4
 74
0
 40
0
 40
0
 40
0
 40
0
 40
1
 40
1
 40
1
 40
1
 10
6.467524
 20
16.797564
 30
0.0
 10
4.787083
 20
16.925434
 30
0.0
 10
2.789377
 20
17.285513
 30
0.0
 10
1.142764
 20
17.508693
 30
0.0
  0
SPLINE
  5
113
100
AcDbEntity
  8
Layer_1
 62
7
100
AcDbSpline
 70
8
 71
3
 72
8
 73
4
 74
0
 40
0
 40
0
 40
0
 40
0
 40
1
 40
1
 40
1
 40
1
 10
1.142764
 20
17.508693
 30
0.0
 10
1.142764
 20
17.518604
 30
0.0
 10
1.166471
 20
18.035334
 30
0.0
 10
1.142764
 20
18.040393
 30
0.0
  0
SPLINE
  5
114
100
AcDbEntity
  8
Layer_1
 62
7
100
AcDbSpline
 70
8
 71
3
 72
8
 73
4
 74
0
 40
0
 40
0
 40
0
 40
0
 40
1
 40
1
 40
1
 40
1
 10
1.142764
 20
18.040393
 30
0.0
 10
1.913969
 20
20.880845
 30
0.0
 10
2.764296
 20
24.157933
 30
0.0
 10
3.627068
 20
27.091120
 30
0.0
  0
SPLINE
  5
115
100
AcDbEntity
  8
Layer_1
 62
7
100
AcDbSpline
 70
8
 71
3
 72
8
 73
4
 74
0
 40
0
 40
0
 40
0
 40
0
 40
1
 40
1
 40
1
 40
1
 10
3.627068
 20
27.091120
 30
0.0
 10
6.562976
 20
26.657207
 30
0.0
 10
15.942249
 20
25.825736
 30
0.0
 10
17.467166
 20
27.800893
 30
0.0
  0
SPLINE
  5
116
100
AcDbEntity
  8
Layer_1
 62
7
100
AcDbSpline
 70
8
 71
3
 72
8
 73
4
 74
0
 40
0
 40
0
 40
0
 40
0
 40
1
 40
1
 40
1
 40
1
 10
17.467166
 20
27.800893
 30
0.0
 10
17.812042
 20
28.254828
 30
0.0
 10
18.351321
 20
29.402209
 30
0.0
 10
17.645245
 20
30.107122
 30
0.0
  0
SPLINE
  5
117
100
AcDbEntity
  8
Layer_1
 62
7
100
AcDbSpline
 70
8
 71
3
 72
8
 73
4
 74
0
 40
0
 40
0
 40
0
 40
0
 40
1
 40
1
 40
1
 40
1
 10
17.645245
 20
30.107122
 30
0.0
 10
16.378499
 20
31.375033
 30
0.0
 10
14.408399
 20
31.139221
 30
0.0
 10
12.559798
 20
31.375033
 30
0.0
  0
SPLINE
  5
118
100
AcDbEntity
  8
Layer_1
 62
7
100
AcDbSpline
 70
8
 71
3
 72
8
 73
4
 74
0
 40
0
 40
0
 40
0
 40
0
 40
1
 40
1
 40
1
 40
1
 10
12.559798
 20
31.375033
 30
0.0
 10
5.781470
 20
32.235277
 30
0.0
 10
0.783892
 20
33.019118
 30
0.0
 10
0.079176
 20
40.932383
 30
0.0
  0
SPLINE
  5
119
100
AcDbEntity
  8
Layer_1
 62
7
100
AcDbSpline
 70
8
 71
3
 72
8
 73
4
 74
0
 40
0
 40
0
 40
0
 40
0
 40
1
 40
1
 40
1
 40
1
 10
0.079176
 20
40.932383
 30
0.0
 10
-0.269393
 20
44.831375
 30
0.0
 10
0.549440
 20
47.870124
 30
0.0
 10
2.208691
 20
50.157495
 30
0.0
  0
SPLINE
  5
11a
100
AcDbEntity
  8
Layer_1
 62
7
100
AcDbSpline
 70
8
 71
3
 72
8
 73
4
 74
0
 40
0
 40
0
 40
0
 40
0
 40
1
 40
1
 40
1
 40
1
 10
2.208691
 20
50.157495
 30
0.0
 10
4.825968
 20
53.792097
 30
0.0
 10
9.300400
 20
55.056314
 30
0.0
 10
15.160745
 20
55.482645
 30
0.0
  0
SPLINE
  5
11b
100
AcDbEntity
  8
Layer_1
 62
7
100
AcDbSpline
 70
8
 71
3
 72
8
 73
4
 74
0
 40
0
 40
0
 40
0
 40
0
 40
1
 40
1
 40
1
 40
1
 10
83.332595
 20
16.401039
 30
0.0
 10
83.332595
 20
16.401237
 30
0.0
 10
83.352575
 20
51.770351
 30
0.0
 10
83.332595
 20
55.550172
 30
0.0
  0
SPLINE
  5
11c
100
AcDbEntity
  8
Layer_1
 62
7
100
AcDbSpline
 70
8
 71
3
 72
8
 73
4
 74
0
 40
0
 40
0
 40
0
 40
0
 40
1
 40
1
 40
1
 40
1
 10
64.685375
 20
36.504415
 30
0.0
 10
64.077272
 20
33.011925
 30
0.0
 10
59.577567
 20
28.612536
 30
0.0
 10
56.035895
 20
28.026792
 30
0.0
  0
SPLINE
  5
11d
100
AcDbEntity
  8
Layer_1
 62
7
100
AcDbSpline
 70
8
 71
3
 72
8
 73
4
 74
0
 40
0
 40
0
 40
0
 40
0
 40
1
 40
1
 40
1
 40
1
 10
56.035895
 20
28.026792
 30
0.0
 10
53.095119
 20
27.546417
 30
0.0
 10
51.083420
 20
28.318981
 30
0.0
 10
49.632379
 20
29.757386
 30
0.0
  0
SPLINE
  5
11e
100
AcDbEntity
  8
Layer_1
 62
7
100
AcDbSpline
 70
8
 71
3
 72
8
 73
4
 74
0
 40
0
 40
0
 40
0
 40
0
 40
1
 40
1
 40
1
 40
1
 10
49.632379
 20
29.757386
 30
0.0
 10
44.474424
 20
34.871604
 30
0.0
 10
52.742676
 20
43.216255
 30
0.0
 10
57.592111
 20
43.944887
 30
0.0
  0
SPLINE
  5
11f
100
AcDbEntity
  8
Layer_1
 62
7
100
AcDbSpline
 70
8
 71
3
 72
8
 73
4
 74
0
 40
0
 40
0
 40
0
 40
0
 40
1
 40
1
 40
1
 40
1
 10
57.592111
 20
43.944887
 30
0.0
 10
61.988974
 20
44.610919
 30
0.0
 10
65.454045
 20
40.940356
 30
0.0
 10
64.685375
 20
36.504415
 30
0.0
  0
SPLINE
  5
120
100
AcDbEntity
  8
Layer_1
 62
7
100
AcDbSpline
 70
8
 71
3
 72
8
 73
4
 74
0
 40
0
 40
0
 40
0
 40
0
 40
1
 40
1
 40
1
 40
1
 10
75.760249
 20
43.427185
 30
0.0
 10
72.956144
 20
51.164904
 30
0.0
 10
65.871833
 20
56.548763
 30
0.0
 10
54.478316
 20
55.713404
 30
0.0
  0
SPLINE
  5
121
100
AcDbEntity
  8
Layer_1
 62
7
100
AcDbSpline
 70
8
 71
3
 72
8
 73
4
 74
0
 40
0
 40
0
 40
0
 40
0
 40
1
 40
1
 40
1
 40
1
 10
54.478316
 20
55.713404
 30
0.0
 10
47.480513
 20
55.205421
 30
0.0
 10
41.510902
 20
51.181233
 30
0.0
 10
38.731882
 20
46.370482
 30
0.0
  0
SPLINE
  5
122
100
AcDbEntity
  8
Layer_1
 62
7
100
AcDbSpline
 70
8
 71
3
 72
8
 73
4
 74
0
 40
0
 40
0
 40
0
 40
0
 40
1
 40
1
 40
1
 40
1
 10
38.731882
 20
46.370482
 30
0.0
 10
36.462006
 20
42.447772
 30
0.0
 10
35.028462
 20
36.310205
 30
0.0
 10
36.482030
 20
30.622879
 30
0.0
  0
SPLINE
  5
123
100
AcDbEntity
  8
Layer_1
 62
7
100
AcDbSpline
 70
8
 71
3
 72
8
 73
4
 74
0
 40
0
 40
0
 40
0
 40
0
 40
1
 40
1
 40
1
 40
1
 10
36.482030
 20
30.622879
 30
0.0
 10
41.388035
 20
11.424187
 30
0.0
 10
71.612803
 20
11.680033
 30
0.0
 10
76.279315
 20
31.313992
 30
0.0
  0
SPLINE
  5
124
100
AcDbEntity
  8
Layer_1
 62
7
100
AcDbSpline
 70
8
 71
3
 72
8
 73
4
 74
0
 40
0
 40
0
 40
0
 40
0
 40
1
 40
1
 40
1
 40
1
 10
76.279315
 20
31.313992
 30
0.0
 10
77.173583
 20
35.084867
 30
0.0
 10
76.998035
 20
40.011098
 30
0.0
 10
75.760249
 20
43.427185
 30
0.0
  0
LWPOLYLINE
  5
125
100
AcDbEntity
  8
Layer_1
 62
7
100
AcDbPolyline
 90
10
 70
0
 10
83.332595
 20
55.551659
 30
0.0
 10
99.680720
 20
55.551659
 30
0.0
 10
110.150218
 20
36.144570
 30
0.0
 10
110.150218
 20
55.551659
 30
0.0
 10
122.395032
 20
55.551659
 30
0.0
 10
122.395032
 20
16.390281
 30
0.0
 10
105.404792
 20
16.401976
 30
0.0
 10
95.778230
 20
36.143829
 30
0.0
 10
95.778230
 20
16.389344
 30
0.0
 10
83.332595
 20
16.401039
 30
0.0
  0
LWPOLYLINE
  5
126
100
AcDbEntity
  8
Layer_1
 62
7
100
AcDbPolyline
 90
8
 70
1
 10
0.577629
 20
10.181973
 30
0.0
 10
9.980892
 20
10.181973
 30
0.0
 10
9.980892
 20
7.709946
 30
0.0
 10
6.825983
 20
7.709946
 30
0.0
 10
6.825983
 20
0.170947
 30
0.0
 10
3.732536
 20
0.170947
 30
0.0
 10
3.732536
 20
7.709946
 30
0.0
 10
0.577629
 20
7.709946
 30
0.0
  0
LWPOLYLINE
  5
127
100
AcDbEntity
  8
Layer_1
 62
7
100
AcDbPolyline
 90
12
 70
1
 10
16.528836
 20
10.181973
 30
0.0
 10
19.622283
 20
10.181973
 30
0.0
 10
19.622283
 20
6.678797
 30
0.0
 10
23.002542
 20
6.678797
 30
0.0
 10
23.002542
 20
10.181973
 30
0.0
 10
26.109647
 20
10.181973
 30
0.0
 10
26.109647
 20
0.170947
 30
0.0
 10
23.002542
 20
0.170947
 30
0.0
 10
23.002542
 20
4.220428
 30
0.0
 10
19.622283
 20
4.220428
 30
0.0
 10
19.622283
 20
0.170947
 30
0.0
 10
16.528836
 20
0.170947
 30
0.0
  0
LWPOLYLINE
  5
128
100
AcDbEntity
  8
Layer_1
 62
7
100
AcDbPolyline
 90
12
 70
1
 10
34.341571
 20
10.181973
 30
0.0
 10
42.631740
 20
10.181973
 30
0.0
 10
42.631740
 20
8.044556
 30
0.0
 10
37.441850
 20
8.044556
 30
0.0
 10
37.441850
 20
6.453447
 30
0.0
 10
42.256156
 20
6.453447
 30
0.0
 10
42.256156
 20
4.411633
 30
0.0
 10
37.441850
 20
4.411633
 30
0.0
 10
37.441850
 20
2.438109
 30
0.0
 10
42.781973
 20
2.438109
 30
0.0
 10
42.781973
 20
0.170947
 30
0.0
 10
34.341571
 20
0.170947
 30
0.0
  0
LWPOLYLINE
  5
129
100
AcDbEntity
  8
Layer_1
 62
7
100
AcDbPolyline
 90
12
 70
1
 10
56.247986
 20
10.181973
 30
0.0
 10
59.341434
 20
10.181973
 30
0.0
 10
59.341434
 20
6.678797
 30
0.0
 10
62.721693
 20
6.678797
 30
0.0
 10
62.721693
 20
10.181973
 30
0.0
 10
65.828798
 20
10.181973
 30
0.0
 10
65.828798
 20
0.170947
 30
0.0
 10
62.721693
 20
0.170947
 30
0.0
 10
62.721693
 20
4.220428
 30
0.0
 10
59.341434
 20
4.220428
 30
0.0
 10
59.341434
 20
0.170947
 30
0.0
 10
56.247986
 20
0.170947
 30
0.0
  0
LWPOLYLINE
  5
12a
100
AcDbEntity
  8
Layer_1
 62
7
100
AcDbPolyline
 90
12
 70
1
 10
74.060726
 20
10.181973
 30
0.0
 10
82.350895
 20
10.181973
 30
0.0
 10
82.350895
 20
8.044556
 30
0.0
 10
77.161004
 20
8.044556
 30
0.0
 10
77.161004
 20
6.453447
 30
0.0
 10
81.975309
 20
6.453447
 30
0.0
 10
81.975309
 20
4.411633
 30
0.0
 10
77.161004
 20
4.411633
 30
0.0
 10
77.161004
 20
2.438109
 30
0.0
 10
82.501128
 20
2.438109
 30
0.0
 10
82.501128
 20
0.170947
 30
0.0
 10
74.060726
 20
0.170947
 30
0.0
  0
SPLINE
  5
12b
100
AcDbEntity
  8
Layer_1
 62
7
100
AcDbSpline
 70
8
 71
3
 72
8
 73
4
 74
0
 40
0
 40
0
 40
0
 40
0
 40
1
 40
1
 40
1
 40
1
 10
93.938495
 20
10.181973
 30
0.0
 10
94.844450
 20
10.181973
 30
0.0
 10
95.575133
 20
10.059054
 30
0.0
 10
96.130542
 20
9.813218
 30
0.0
  0
SPLINE
  5
12c
100
AcDbEntity
  8
Layer_1
 62
7
100
AcDbSpline
 70
8
 71
3
 72
8
 73
4
 74
0
 40
0
 40
0
 40
0
 40
0
 40
1
 40
1
 40
1
 40
1
 10
96.130542
 20
9.813218
 30
0.0
 10
96.690504
 20
9.567380
 30
0.0
 10
97.152587
 20
9.214559
 30
0.0
 10
97.516790
 20
8.754754
 30
0.0
  0
SPLINE
  5
12d
100
AcDbEntity
  8
Layer_1
 62
7
100
AcDbSpline
 70
8
 71
3
 72
8
 73
4
 74
0
 40
0
 40
0
 40
0
 40
0
 40
1
 40
1
 40
1
 40
1
 10
97.516790
 20
8.754754
 30
0.0
 10
97.880991
 20
8.294947
 30
0.0
 10
98.145038
 20
7.760024
 30
0.0
 10
98.308930
 20
7.149985
 30
0.0
  0
SPLINE
  5
12e
100
AcDbEntity
  8
Layer_1
 62
7
100
AcDbSpline
 70
8
 71
3
 72
8
 73
4
 74
0
 40
0
 40
0
 40
0
 40
0
 40
1
 40
1
 40
1
 40
1
 10
98.308930
 20
7.149985
 30
0.0
 10
98.472821
 20
6.539944
 30
0.0
 10
98.554766
 20
5.893483
 30
0.0
 10
98.554766
 20
5.210604
 30
0.0
  0
SPLINE
  5
12f
100
AcDbEntity
  8
Layer_1
 62
7
100
AcDbSpline
 70
8
 71
3
 72
8
 73
4
 74
0
 40
0
 40
0
 40
0
 40
0
 40
1
 40
1
 40
1
 40
1
 10
98.554766
 20
5.210604
 30
0.0
 10
98.554766
 20
4.140758
 30
0.0
 10
98.431848
 20
3.309920
 30
0.0
 10
98.186011
 20
2.718090
 30
0.0
  0
SPLINE
  5
130
100
AcDbEntity
  8
Layer_1
 62
7
100
AcDbSpline
 70
8
 71
3
 72
8
 73
4
 74
0
 40
0
 40
0
 40
0
 40
0
 40
1
 40
1
 40
1
 40
1
 10
98.186011
 20
2.718090
 30
0.0
 10
97.944727
 20
2.130813
 30
0.0
 10
97.607840
 20
1.636863
 30
0.0
 10
97.175349
 20
1.236240
 30
0.0
  0
SPLINE
  5
131
100
AcDbEntity
  8
Layer_1
 62
7
100
AcDbSpline
 70
8
 71
3
 72
8
 73
4
 74
0
 40
0
 40
0
 40
0
 40
0
 40
1
 40
1
 40
1
 40
1
 10
97.175349
 20
1.236240
 30
0.0
 10
96.742857
 20
0.840168
 30
0.0
 10
96.278499
 20
0.576122
 30
0.0
 10
95.782273
 20
0.444099
 30
0.0
  0
SPLINE
  5
132
100
AcDbEntity
  8
Layer_1
 62
7
100
AcDbSpline
 70
8
 71
3
 72
8
 73
4
 74
0
 40
0
 40
0
 40
0
 40
0
 40
1
 40
1
 40
1
 40
1
 10
95.782273
 20
0.444099
 30
0.0
 10
95.103945
 20
0.261998
 30
0.0
 10
94.489352
 20
0.170947
 30
0.0
 10
93.938495
 20
0.170947
 30
0.0
  0
LWPOLYLINE
  5
133
100
AcDbEntity
  8
Layer_1
 62
7
100
AcDbPolyline
 90
2
 70
0
 10
89.342712
 20
10.181973
 30
0.0
 10
93.938495
 20
10.181973
 30
0.0
  0
LWPOLYLINE
  5
134
100
AcDbEntity
  8
Layer_1
 62
7
100
AcDbPolyline
 90
3
 70
0
 10
93.938495
 20
0.170947
 30
0.0
 10
89.342712
 20
0.170947
 30
0.0
 10
89.342712
 20
10.181973
 30
0.0
  0
SPLINE
  5
135
100
AcDbEntity
  8
Layer_1
 62
7
100
AcDbSpline
 70
8
 71
3
 72
8
 73
4
 74
0
 40
0
 40
0
 40
0
 40
0
 40
1
 40
1
 40
1
 40
1
 10
93.194157
 20
2.444937
 30
0.0
 10
93.840617
 20
2.444937
 30
0.0
 10
94.300423
 20
2.515502
 30
0.0
 10
94.573574
 20
2.656630
 30
0.0
  0
SPLINE
  5
136
100
AcDbEntity
  8
Layer_1
 62
7
100
AcDbSpline
 70
8
 71
3
 72
8
 73
4
 74
0
 40
0
 40
0
 40
0
 40
0
 40
1
 40
1
 40
1
 40
1
 10
94.573574
 20
2.656630
 30
0.0
 10
94.846726
 20
2.802311
 30
0.0
 10
95.060696
 20
3.052701
 30
0.0
 10
95.215483
 20
3.407799
 30
0.0
  0
SPLINE
  5
137
100
AcDbEntity
  8
Layer_1
 62
7
100
AcDbSpline
 70
8
 71
3
 72
8
 73
4
 74
0
 40
0
 40
0
 40
0
 40
0
 40
1
 40
1
 40
1
 40
1
 10
95.215483
 20
3.407799
 30
0.0
 10
95.370268
 20
3.767450
 30
0.0
 10
95.447661
 20
4.347898
 30
0.0
 10
95.447661
 20
5.149144
 30
0.0
  0
SPLINE
  5
138
100
AcDbEntity
  8
Layer_1
 62
7
100
AcDbSpline
 70
8
 71
3
 72
8
 73
4
 74
0
 40
0
 40
0
 40
0
 40
0
 40
1
 40
1
 40
1
 40
1
 10
95.447661
 20
5.149144
 30
0.0
 10
95.447661
 20
6.209885
 30
0.0
 10
95.274665
 20
6.936015
 30
0.0
 10
94.928673
 20
7.327532
 30
0.0
  0
SPLINE
  5
139
100
AcDbEntity
  8
Layer_1
 62
7
100
AcDbSpline
 70
8
 71
3
 72
8
 73
4
 74
0
 40
0
 40
0
 40
0
 40
0
 40
1
 40
1
 40
1
 40
1
 10
94.928673
 20
7.327532
 30
0.0
 10
94.582680
 20
7.719051
 30
0.0
 10
94.009060
 20
7.914811
 30
0.0
 10
93.207814
 20
7.914811
 30
0.0
  0
LWPOLYLINE
  5
13a
100
AcDbEntity
  8
Layer_1
 62
7
100
AcDbPolyline
 90
3
 70
0
 10
92.436159
 20
7.914811
 30
0.0
 10
92.436159
 20
2.444937
 30
0.0
 10
93.194157
 20
2.444937
 30
0.0
  0
LWPOLYLINE
  5
13b
100
AcDbEntity
  8
Layer_1
 62
7
100
AcDbPolyline
 90
2
 70
0
 10
93.207814
 20
7.914811
 30
0.0
 10
92.436159
 20
7.914811
 30
0.0
  0
SPLINE
  5
13c
100
AcDbEntity
  8
Layer_1
 62
7
100
AcDbSpline
 70
8
 71
3
 72
8
 73
4
 74
0
 40
0
 40
0
 40
0
 40
0
 40
1
 40
1
 40
1
 40
1
 10
115.127391
 20
1.611823
 30
0.0
 10
114.212330
 20
0.988126
 30
0.0
 10
113.401979
 20
0.562464
 30
0.0
 10
112.696336
 20
0.334837
 30
0.0
  0
SPLINE
  5
13d
100
AcDbEntity
  8
Layer_1
 62
7
100
AcDbSpline
 70
8
 71
3
 72
8
 73
4
 74
0
 40
0
 40
0
 40
0
 40
0
 40
1
 40
1
 40
1
 40
1
 10
112.696336
 20
0.334837
 30
0.0
 10
111.995246
 20
0.111763
 30
0.0
 10
111.162131
 20
0.000226
 30
0.0
 10
110.196993
 20
0.000226
 30
0.0
  0
SPLINE
  5
13e
100
AcDbEntity
  8
Layer_1
 62
7
100
AcDbSpline
 70
8
 71
3
 72
8
 73
4
 74
0
 40
0
 40
0
 40
0
 40
0
 40
1
 40
1
 40
1
 40
1
 10
110.196993
 20
0.000226
 30
0.0
 10
109.008782
 20
0.000226
 30
0.0
 10
108.039092
 20
0.202814
 30
0.0
 10
107.287922
 20
0.607990
 30
0.0
  0
SPLINE
  5
13f
100
AcDbEntity
  8
Layer_1
 62
7
100
AcDbSpline
 70
8
 71
3
 72
8
 73
4
 74
0
 40
0
 40
0
 40
0
 40
0
 40
1
 40
1
 40
1
 40
1
 10
107.287922
 20
0.607990
 30
0.0
 10
106.541306
 20
1.013166
 30
0.0
 10
105.960858
 20
1.616377
 30
0.0
 10
105.546577
 20
2.417623
 30
0.0
  0
SPLINE
  5
140
100
AcDbEntity
  8
Layer_1
 62
7
100
AcDbSpline
 70
8
 71
3
 72
8
 73
4
 74
0
 40
0
 40
0
 40
0
 40
0
 40
1
 40
1
 40
1
 40
1
 10
105.546577
 20
2.417623
 30
0.0
 10
105.136850
 20
3.218869
 30
0.0
 10
104.931986
 20
4.138481
 30
0.0
 10
104.931986
 20
5.176459
 30
0.0
  0
SPLINE
  5
141
100
AcDbEntity
  8
Layer_1
 62
7
100
AcDbSpline
 70
8
 71
3
 72
8
 73
4
 74
0
 40
0
 40
0
 40
0
 40
0
 40
1
 40
1
 40
1
 40
1
 10
104.931986
 20
5.176459
 30
0.0
 10
104.931986
 20
6.269068
 30
0.0
 10
105.157336
 20
7.218272
 30
0.0
 10
105.608037
 20
8.024070
 30
0.0
  0
SPLINE
  5
142
100
AcDbEntity
  8
Layer_1
 62
7
100
AcDbSpline
 70
8
 71
3
 72
8
 73
4
 74
0
 40
0
 40
0
 40
0
 40
0
 40
1
 40
1
 40
1
 40
1
 10
105.608037
 20
8.024070
 30
0.0
 10
106.058738
 20
8.834421
 30
0.0
 10
106.718856
 20
9.449013
 30
0.0
 10
107.588391
 20
9.867847
 30
0.0
  0
SPLINE
  5
143
100
AcDbEntity
  8
Layer_1
 62
7
100
AcDbSpline
 70
8
 71
3
 72
8
 73
4
 74
0
 40
0
 40
0
 40
0
 40
0
 40
1
 40
1
 40
1
 40
1
 10
107.588391
 20
9.867847
 30
0.0
 10
108.266718
 20
10.191077
 30
0.0
 10
109.179501
 20
10.352692
 30
0.0
 10
110.326741
 20
10.352692
 30
0.0
  0
SPLINE
  5
144
100
AcDbEntity
  8
Layer_1
 62
7
100
AcDbSpline
 70
8
 71
3
 72
8
 73
4
 74
0
 40
0
 40
0
 40
0
 40
0
 40
1
 40
1
 40
1
 40
1
 10
110.326741
 20
10.352692
 30
0.0
 10
111.433007
 20
10.352692
 30
0.0
 10
112.259292
 20
10.252536
 30
0.0
 10
112.805596
 20
10.052225
 30
0.0
  0
SPLINE
  5
145
100
AcDbEntity
  8
Layer_1
 62
7
100
AcDbSpline
 70
8
 71
3
 72
8
 73
4
 74
0
 40
0
 40
0
 40
0
 40
0
 40
1
 40
1
 40
1
 40
1
 10
112.805596
 20
10.052225
 30
0.0
 10
113.356453
 20
9.851914
 30
0.0
 10
113.811707
 20
9.540066
 30
0.0
 10
114.171357
 20
9.116680
 30
0.0
  0
SPLINE
  5
146
100
AcDbEntity
  8
Layer_1
 62
7
100
AcDbSpline
 70
8
 71
3
 72
8
 73
4
 74
0
 40
0
 40
0
 40
0
 40
0
 40
1
 40
1
 40
1
 40
1
 10
114.171357
 20
9.116680
 30
0.0
 10
114.535561
 20
8.697846
 30
0.0
 10
114.808713
 20
8.165200
 30
0.0
 10
114.990814
 20
7.518739
 30
0.0
  0
LWPOLYLINE
  5
147
100
AcDbEntity
  8
Layer_1
 62
7
100
AcDbPolyline
 90
4
 70
0
 10
110.347227
 20
3.797042
 30
0.0
 10
110.347227
 20
5.879825
 30
0.0
 10
115.127391
 20
5.879825
 30
0.0
 10
115.127391
 20
1.611823
 30
0.0
  0
SPLINE
  5
148
100
AcDbEntity
  8
Layer_1
 62
7
100
AcDbSpline
 70
8
 71
3
 72
8
 73
4
 74
0
 40
0
 40
0
 40
0
 40
0
 40
1
 40
1
 40
1
 40
1
 10
112.006627
 20
6.986092
 30
0.0
 10
111.883705
 20
7.363952
 30
0.0
 10
111.674288
 20
7.653039
 30
0.0
 10
111.378377
 20
7.853351
 30
0.0
  0
SPLINE
  5
149
100
AcDbEntity
  8
Layer_1
 62
7
100
AcDbSpline
 70
8
 71
3
 72
8
 73
4
 74
0
 40
0
 40
0
 40
0
 40
0
 40
1
 40
1
 40
1
 40
1
 10
111.378377
 20
7.853351
 30
0.0
 10
111.087015
 20
8.053662
 30
0.0
 10
110.713707
 20
8.153818
 30
0.0
 10
110.258453
 20
8.153818
 30
0.0
  0
SPLINE
  5
14a
100
AcDbEntity
  8
Layer_1
 62
7
100
AcDbSpline
 70
8
 71
3
 72
8
 73
4
 74
0
 40
0
 40
0
 40
0
 40
0
 40
1
 40
1
 40
1
 40
1
 10
110.258453
 20
8.153818
 30
0.0
 10
109.580124
 20
8.153818
 30
0.0
 10
109.038373
 20
7.917086
 30
0.0
 10
108.633198
 20
7.443623
 30
0.0
  0
SPLINE
  5
14b
100
AcDbEntity
  8
Layer_1
 62
7
100
AcDbSpline
 70
8
 71
3
 72
8
 73
4
 74
0
 40
0
 40
0
 40
0
 40
0
 40
1
 40
1
 40
1
 40
1
 10
108.633198
 20
7.443623
 30
0.0
 10
108.232574
 20
6.974712
 30
0.0
 10
108.032263
 20
6.230372
 30
0.0
 10
108.032263
 20
5.210604
 30
0.0
  0
SPLINE
  5
14c
100
AcDbEntity
  8
Layer_1
 62
7
100
AcDbSpline
 70
8
 71
3
 72
8
 73
4
 74
0
 40
0
 40
0
 40
0
 40
0
 40
1
 40
1
 40
1
 40
1
 10
108.032263
 20
5.210604
 30
0.0
 10
108.032263
 20
4.127101
 30
0.0
 10
108.234851
 20
3.353170
 30
0.0
 10
108.640027
 20
2.888811
 30
0.0
  0
SPLINE
  5
14d
100
AcDbEntity
  8
Layer_1
 62
7
100
AcDbSpline
 70
8
 71
3
 72
8
 73
4
 74
0
 40
0
 40
0
 40
0
 40
0
 40
1
 40
1
 40
1
 40
1
 10
108.640027
 20
2.888811
 30
0.0
 10
109.049755
 20
2.424452
 30
0.0
 10
109.618822
 20
2.192273
 30
0.0
 10
110.347227
 20
2.192273
 30
0.0
  0
SPLINE
  5
14e
100
AcDbEntity
  8
Layer_1
 62
7
100
AcDbSpline
 70
8
 71
3
 72
8
 73
4
 74
0
 40
0
 40
0
 40
0
 40
0
 40
1
 40
1
 40
1
 40
1
 10
110.347227
 20
2.192273
 30
0.0
 10
110.693220
 20
2.192273
 30
0.0
 10
111.023279
 20
2.242349
 30
0.0
 10
111.337403
 20
2.342502
 30
0.0
  0
SPLINE
  5
14f
100
AcDbEntity
  8
Layer_1
 62
7
100
AcDbSpline
 70
8
 71
3
 72
8
 73
4
 74
0
 40
0
 40
0
 40
0
 40
0
 40
1
 40
1
 40
1
 40
1
 10
111.337403
 20
2.342502
 30
0.0
 10
111.651528
 20
2.442655
 30
0.0
 10
112.011179
 20
2.613375
 30
0.0
 10
112.416355
 20
2.854662
 30
0.0
  0
LWPOLYLINE
  5
150
100
AcDbEntity
  8
Layer_1
 62
7
100
AcDbPolyline
 90
2
 70
0
 10
114.990814
 20
7.518739
 30
0.0
 10
112.006627
 20
6.986092
 30
0.0
  0
LWPOLYLINE
  5
151
100
AcDbEntity
  8
Layer_1
 62
7
100
AcDbPolyline
 90
3
 70
0
 10
112.416355
 20
2.854662
 30
0.0
 10
112.416355
 20
3.797038
 30
0.0
 10
110.347227
 20
3.797042
 30
0.0
  0
LWPOLYLINE
  5
152
100
AcDbEntity
  8
Layer_1
 62
7
100
AcDbPolyline
 90
12
 70
1
 10
123.140793
 20
10.181973
 30
0.0
 10
131.430960
 20
10.181973
 30
0.0
 10
131.430960
 20
8.044556
 30
0.0
 10
126.241070
 20
8.044556
 30
0.0
 10
126.241070
 20
6.453447
 30
0.0
 10
131.055376
 20
6.453447
 30
0.0
 10
131.055376
 20
4.411633
 30
0.0
 10
126.241070
 20
4.411633
 30
0.0
 10
126.241070
 20
2.438109
 30
0.0
 10
131.581193
 20
2.438109
 30
0.0
 10
131.581193
 20
0.170947
 30
0.0
 10
123.140793
 20
0.170947
 30
0.0
  0
SPLINE
  5
153
100
AcDbEntity
  8
Layer_1
 62
7
100
AcDbSpline
 70
8
 71
3
 72
8
 73
4
 74
0
 40
0
 40
0
 40
0
 40
0
 40
1
 40
1
 40
1
 40
1
 10
154.776882
 20
5.169630
 30
0.0
 10
154.776882
 20
6.803990
 30
0.0
 10
155.232135
 20
8.076424
 30
0.0
 10
156.142641
 20
8.986932
 30
0.0
  0
SPLINE
  5
154
100
AcDbEntity
  8
Layer_1
 62
7
100
AcDbSpline
 70
8
 71
3
 72
8
 73
4
 74
0
 40
0
 40
0
 40
0
 40
0
 40
1
 40
1
 40
1
 40
1
 10
156.142641
 20
8.986932
 30
0.0
 10
157.053149
 20
9.897439
 30
0.0
 10
158.321031
 20
10.352692
 30
0.0
 10
159.946286
 20
10.352692
 30
0.0
  0
SPLINE
  5
155
100
AcDbEntity
  8
Layer_1
 62
7
100
AcDbSpline
 70
8
 71
3
 72
8
 73
4
 74
0
 40
0
 40
0
 40
0
 40
0
 40
1
 40
1
 40
1
 40
1
 10
159.946286
 20
10.352692
 30
0.0
 10
161.612513
 20
10.352692
 30
0.0
 10
162.896328
 20
9.904267
 30
0.0
 10
163.797731
 20
9.007418
 30
0.0
  0
SPLINE
  5
156
100
AcDbEntity
  8
Layer_1
 62
7
100
AcDbSpline
 70
8
 71
3
 72
8
 73
4
 74
0
 40
0
 40
0
 40
0
 40
0
 40
1
 40
1
 40
1
 40
1
 10
163.797731
 20
9.007418
 30
0.0
 10
164.699133
 20
8.115121
 30
0.0
 10
165.149834
 20
6.863174
 30
0.0
 10
165.149834
 20
5.251575
 30
0.0
  0
SPLINE
  5
157
100
AcDbEntity
  8
Layer_1
 62
7
100
AcDbSpline
 70
8
 71
3
 72
8
 73
4
 74
0
 40
0
 40
0
 40
0
 40
0
 40
1
 40
1
 40
1
 40
1
 10
165.149834
 20
5.251575
 30
0.0
 10
165.149834
 20
4.081574
 30
0.0
 10
164.951798
 20
3.120989
 30
0.0
 10
164.555727
 20
2.369821
 30
0.0
  0
SPLINE
  5
158
100
AcDbEntity
  8
Layer_1
 62
7
100
AcDbSpline
 70
8
 71
3
 72
8
 73
4
 74
0
 40
0
 40
0
 40
0
 40
0
 40
1
 40
1
 40
1
 40
1
 10
164.555727
 20
2.369821
 30
0.0
 10
164.164209
 20
1.623205
 30
0.0
 10
163.595143
 20
1.040480
 30
0.0
 10
162.848527
 20
0.621647
 30
0.0
  0
SPLINE
  5
159
100
AcDbEntity
  8
Layer_1
 62
7
100
AcDbSpline
 70
8
 71
3
 72
8
 73
4
 74
0
 40
0
 40
0
 40
0
 40
0
 40
1
 40
1
 40
1
 40
1
 10
162.848527
 20
0.621647
 30
0.0
 10
162.106463
 20
0.207366
 30
0.0
 10
161.180022
 20
0.000226
 30
0.0
 10
160.069203
 20
0.000226
 30
0.0
  0
SPLINE
  5
15a
100
AcDbEntity
  8
Layer_1
 62
7
100
AcDbSpline
 70
8
 71
3
 72
8
 73
4
 74
0
 40
0
 40
0
 40
0
 40
0
 40
1
 40
1
 40
1
 40
1
 10
160.069203
 20
0.000226
 30
0.0
 10
158.940175
 20
0.000226
 30
0.0
 10
158.004629
 20
0.180051
 30
0.0
 10
157.262565
 20
0.539702
 30
0.0
  0
SPLINE
  5
15b
100
AcDbEntity
  8
Layer_1
 62
7
100
AcDbSpline
 70
8
 71
3
 72
8
 73
4
 74
0
 40
0
 40
0
 40
0
 40
0
 40
1
 40
1
 40
1
 40
1
 10
157.262565
 20
0.539702
 30
0.0
 10
156.525054
 20
0.899352
 30
0.0
 10
155.926395
 20
1.468419
 30
0.0
 10
155.466589
 20
2.246902
 30
0.0
  0
SPLINE
  5
15c
100
AcDbEntity
  8
Layer_1
 62
7
100
AcDbSpline
 70
8
 71
3
 72
8
 73
4
 74
0
 40
0
 40
0
 40
0
 40
0
 40
1
 40
1
 40
1
 40
1
 10
155.466589
 20
2.246902
 30
0.0
 10
155.006784
 20
3.025386
 30
0.0
 10
154.776882
 20
3.999629
 30
0.0
 10
154.776882
 20
5.169630
 30
0.0
  0
LWPOLYLINE
  5
15d
100
AcDbEntity
  8
Layer_1
 62
7
100
AcDbPolyline
 90
12
 70
1
 10
138.395462
 20
10.181973
 30
0.0
 10
141.488910
 20
10.181973
 30
0.0
 10
141.488910
 20
6.678797
 30
0.0
 10
144.869167
 20
6.678797
 30
0.0
 10
144.869167
 20
10.181973
 30
0.0
 10
147.976274
 20
10.181973
 30
0.0
 10
147.976274
 20
0.170947
 30
0.0
 10
144.869167
 20
0.170947
 30
0.0
 10
144.869167
 20
4.220428
 30
0.0
 10
141.488910
 20
4.220428
 30
0.0
 10
141.488910
 20
0.170947
 30
0.0
 10
138.395462
 20
0.170947
 30
0.0
  0
SPLINE
  5
15e
100
AcDbEntity
  8
Layer_1
 62
7
100
AcDbSpline
 70
8
 71
3
 72
8
 73
4
 74
0
 40
0
 40
0
 40
0
 40
0
 40
1
 40
1
 40
1
 40
1
 10
157.870329
 20
5.155953
 30
0.0
 10
157.870329
 20
4.145290
 30
0.0
 10
158.056983
 20
3.419160
 30
0.0
 10
158.430291
 20
2.977565
 30
0.0
  0
SPLINE
  5
15f
100
AcDbEntity
  8
Layer_1
 62
7
100
AcDbSpline
 70
8
 71
3
 72
8
 73
4
 74
0
 40
0
 40
0
 40
0
 40
0
 40
1
 40
1
 40
1
 40
1
 10
158.430291
 20
2.977565
 30
0.0
 10
158.808151
 20
2.535968
 30
0.0
 10
159.320312
 20
2.315170
 30
0.0
 10
159.966772
 20
2.315170
 30
0.0
  0
SPLINE
  5
160
100
AcDbEntity
  8
Layer_1
 62
7
100
AcDbSpline
 70
8
 71
3
 72
8
 73
4
 74
0
 40
0
 40
0
 40
0
 40
0
 40
1
 40
1
 40
1
 40
1
 10
159.966772
 20
2.315170
 30
0.0
 10
160.631442
 20
2.315170
 30
0.0
 10
161.145878
 20
2.531416
 30
0.0
 10
161.510082
 20
2.963908
 30
0.0
  0
SPLINE
  5
161
100
AcDbEntity
  8
Layer_1
 62
7
100
AcDbSpline
 70
8
 71
3
 72
8
 73
4
 74
0
 40
0
 40
0
 40
0
 40
0
 40
1
 40
1
 40
1
 40
1
 10
161.510082
 20
2.963908
 30
0.0
 10
161.874285
 20
3.396398
 30
0.0
 10
162.056386
 20
4.172606
 30
0.0
 10
162.056386
 20
5.292529
 30
0.0
  0
SPLINE
  5
162
100
AcDbEntity
  8
Layer_1
 62
7
100
AcDbSpline
 70
8
 71
3
 72
8
 73
4
 74
0
 40
0
 40
0
 40
0
 40
0
 40
1
 40
1
 40
1
 40
1
 10
162.056386
 20
5.292529
 30
0.0
 10
162.056386
 20
6.234904
 30
0.0
 10
161.865179
 20
6.922337
 30
0.0
 10
161.482765
 20
7.354829
 30
0.0
  0
SPLINE
  5
163
100
AcDbEntity
  8
Layer_1
 62
7
100
AcDbSpline
 70
8
 71
3
 72
8
 73
4
 74
0
 40
0
 40
0
 40
0
 40
0
 40
1
 40
1
 40
1
 40
1
 10
161.482765
 20
7.354829
 30
0.0
 10
161.104905
 20
7.791872
 30
0.0
 10
160.590468
 20
8.010393
 30
0.0
 10
159.939456
 20
8.010393
 30
0.0
  0
SPLINE
  5
164
100
AcDbEntity
  8
Layer_1
 62
7
100
AcDbSpline
 70
8
 71
3
 72
8
 73
4
 74
0
 40
0
 40
0
 40
0
 40
0
 40
1
 40
1
 40
1
 40
1
 10
159.939456
 20
8.010393
 30
0.0
 10
159.315759
 20
8.010393
 30
0.0
 10
158.814980
 20
7.789595
 30
0.0
 10
158.437120
 20
7.347998
 30
0.0
  0
SPLINE
  5
165
100
AcDbEntity
  8
Layer_1
 62
7
100
AcDbSpline
 70
8
 71
3
 72
8
 73
4
 74
0
 40
0
 40
0
 40
0
 40
0
 40
1
 40
1
 40
1
 40
1
 10
158.437120
 20
7.347998
 30
0.0
 10
158.059259
 20
6.906403
 30
0.0
 10
157.870329
 20
6.175721
 30
0.0
 10
157.870329
 20
5.155953
 30
0.0
  0
LWPOLYLINE
  5
166
100
AcDbEntity
  8
Layer_1
 62
7
100
AcDbPolyline
 90
1
 70
1
 10
154.776882
 20
5.169630
 30
0.0
  0
LWPOLYLINE
  5
167
100
AcDbEntity
  8
Layer_1
 62
7
100
AcDbPolyline
 90
1
 70
1
 10
157.870329
 20
5.155953
 30
0.0
  0
SPLINE
  5
168
100
AcDbEntity
  8
Layer_1
 62
7
100
AcDbSpline
 70
8
 71
3
 72
8
 73
4
 74
0
 40
0
 40
0
 40
0
 40
0
 40
1
 40
1
 40
1
 40
1
 10
181.763442
 20
1.611823
 30
0.0
 10
180.848375
 20
0.988126
 30
0.0
 10
180.038020
 20
0.562464
 30
0.0
 10
179.332377
 20
0.334837
 30
0.0
  0
SPLINE
  5
169
100
AcDbEntity
  8
Layer_1
 62
7
100
AcDbSpline
 70
8
 71
3
 72
8
 73
4
 74
0
 40
0
 40
0
 40
0
 40
0
 40
1
 40
1
 40
1
 40
1
 10
179.332377
 20
0.334837
 30
0.0
 10
178.631293
 20
0.111763
 30
0.0
 10
177.798177
 20
0.000226
 30
0.0
 10
176.833027
 20
0.000226
 30
0.0
  0
SPLINE
  5
16a
100
AcDbEntity
  8
Layer_1
 62
7
100
AcDbSpline
 70
8
 71
3
 72
8
 73
4
 74
0
 40
0
 40
0
 40
0
 40
0
 40
1
 40
1
 40
1
 40
1
 10
176.833027
 20
0.000226
 30
0.0
 10
175.644815
 20
0.000226
 30
0.0
 10
174.675126
 20
0.202814
 30
0.0
 10
173.923959
 20
0.607990
 30
0.0
  0
SPLINE
  5
16b
100
AcDbEntity
  8
Layer_1
 62
7
100
AcDbSpline
 70
8
 71
3
 72
8
 73
4
 74
0
 40
0
 40
0
 40
0
 40
0
 40
1
 40
1
 40
1
 40
1
 10
173.923959
 20
0.607990
 30
0.0
 10
173.177348
 20
1.013166
 30
0.0
 10
172.596901
 20
1.616377
 30
0.0
 10
172.182620
 20
2.417623
 30
0.0
  0
SPLINE
  5
16c
100
AcDbEntity
  8
Layer_1
 62
7
100
AcDbSpline
 70
8
 71
3
 72
8
 73
4
 74
0
 40
0
 40
0
 40
0
 40
0
 40
1
 40
1
 40
1
 40
1
 10
172.182620
 20
2.417623
 30
0.0
 10
171.772892
 20
3.218869
 30
0.0
 10
171.568028
 20
4.138481
 30
0.0
 10
171.568028
 20
5.176459
 30
0.0
  0
SPLINE
  5
16d
100
AcDbEntity
  8
Layer_1
 62
7
100
AcDbSpline
 70
8
 71
3
 72
8
 73
4
 74
0
 40
0
 40
0
 40
0
 40
0
 40
1
 40
1
 40
1
 40
1
 10
171.568028
 20
5.176459
 30
0.0
 10
171.568028
 20
6.269068
 30
0.0
 10
171.793378
 20
7.218272
 30
0.0
 10
172.244080
 20
8.024070
 30
0.0
  0
SPLINE
  5
16e
100
AcDbEntity
  8
Layer_1
 62
7
100
AcDbSpline
 70
8
 71
3
 72
8
 73
4
 74
0
 40
0
 40
0
 40
0
 40
0
 40
1
 40
1
 40
1
 40
1
 10
172.244080
 20
8.024070
 30
0.0
 10
172.694781
 20
8.834421
 30
0.0
 10
173.354901
 20
9.449013
 30
0.0
 10
174.224438
 20
9.867847
 30
0.0
  0
SPLINE
  5
16f
100
AcDbEntity
  8
Layer_1
 62
7
100
AcDbSpline
 70
8
 71
3
 72
8
 73
4
 74
0
 40
0
 40
0
 40
0
 40
0
 40
1
 40
1
 40
1
 40
1
 10
174.224438
 20
9.867847
 30
0.0
 10
174.902767
 20
10.191077
 30
0.0
 10
175.815547
 20
10.352692
 30
0.0
 10
176.962780
 20
10.352692
 30
0.0
  0
SPLINE
  5
170
100
AcDbEntity
  8
Layer_1
 62
7
100
AcDbSpline
 70
8
 71
3
 72
8
 73
4
 74
0
 40
0
 40
0
 40
0
 40
0
 40
1
 40
1
 40
1
 40
1
 10
176.962780
 20
10.352692
 30
0.0
 10
178.069048
 20
10.352692
 30
0.0
 10
178.895333
 20
10.252536
 30
0.0
 10
179.441635
 20
10.052225
 30
0.0
  0
SPLINE
  5
171
100
AcDbEntity
  8
Layer_1
 62
7
100
AcDbSpline
 70
8
 71
3
 72
8
 73
4
 74
0
 40
0
 40
0
 40
0
 40
0
 40
1
 40
1
 40
1
 40
1
 10
179.441635
 20
10.052225
 30
0.0
 10
179.992496
 20
9.851914
 30
0.0
 10
180.447750
 20
9.540066
 30
0.0
 10
180.807397
 20
9.116680
 30
0.0
  0
SPLINE
  5
172
100
AcDbEntity
  8
Layer_1
 62
7
100
AcDbSpline
 70
8
 71
3
 72
8
 73
4
 74
0
 40
0
 40
0
 40
0
 40
0
 40
1
 40
1
 40
1
 40
1
 10
180.807397
 20
9.116680
 30
0.0
 10
181.171602
 20
8.697846
 30
0.0
 10
181.444753
 20
8.165200
 30
0.0
 10
181.626850
 20
7.518739
 30
0.0
  0
LWPOLYLINE
  5
173
100
AcDbEntity
  8
Layer_1
 62
7
100
AcDbPolyline
 90
4
 70
0
 10
176.983276
 20
3.797042
 30
0.0
 10
176.983276
 20
5.879825
 30
0.0
 10
181.763442
 20
5.879825
 30
0.0
 10
181.763442
 20
1.611823
 30
0.0
  0
SPLINE
  5
174
100
AcDbEntity
  8
Layer_1
 62
7
100
AcDbSpline
 70
8
 71
3
 72
8
 73
4
 74
0
 40
0
 40
0
 40
0
 40
0
 40
1
 40
1
 40
1
 40
1
 10
178.642678
 20
6.986092
 30
0.0
 10
178.519783
 20
7.363952
 30
0.0
 10
178.310365
 20
7.653039
 30
0.0
 10
178.014426
 20
7.853351
 30
0.0
  0
SPLINE
  5
175
100
AcDbEntity
  8
Layer_1
 62
7
100
AcDbSpline
 70
8
 71
3
 72
8
 73
4
 74
0
 40
0
 40
0
 40
0
 40
0
 40
1
 40
1
 40
1
 40
1
 10
178.014426
 20
7.853351
 30
0.0
 10
177.723059
 20
8.053662
 30
0.0
 10
177.349748
 20
8.153818
 30
0.0
 10
176.894494
 20
8.153818
 30
0.0
  0
SPLINE
  5
176
100
AcDbEntity
  8
Layer_1
 62
7
100
AcDbSpline
 70
8
 71
3
 72
8
 73
4
 74
0
 40
0
 40
0
 40
0
 40
0
 40
1
 40
1
 40
1
 40
1
 10
176.894494
 20
8.153818
 30
0.0
 10
176.216166
 20
8.153818
 30
0.0
 10
175.674416
 20
7.917086
 30
0.0
 10
175.269245
 20
7.443623
 30
0.0
  0
SPLINE
  5
177
100
AcDbEntity
  8
Layer_1
 62
7
100
AcDbSpline
 70
8
 71
3
 72
8
 73
4
 74
0
 40
0
 40
0
 40
0
 40
0
 40
1
 40
1
 40
1
 40
1
 10
175.269245
 20
7.443623
 30
0.0
 10
174.868620
 20
6.974712
 30
0.0
 10
174.668308
 20
6.230372
 30
0.0
 10
174.668308
 20
5.210604
 30
0.0
  0
SPLINE
  5
178
100
AcDbEntity
  8
Layer_1
 62
7
100
AcDbSpline
 70
8
 71
3
 72
8
 73
4
 74
0
 40
0
 40
0
 40
0
 40
0
 40
1
 40
1
 40
1
 40
1
 10
174.668308
 20
5.210604
 30
0.0
 10
174.668308
 20
4.127101
 30
0.0
 10
174.870893
 20
3.353170
 30
0.0
 10
175.276064
 20
2.888811
 30
0.0
  0
SPLINE
  5
179
100
AcDbEntity
  8
Layer_1
 62
7
100
AcDbSpline
 70
8
 71
3
 72
8
 73
4
 74
0
 40
0
 40
0
 40
0
 40
0
 40
1
 40
1
 40
1
 40
1
 10
175.276064
 20
2.888811
 30
0.0
 10
175.685794
 20
2.424452
 30
0.0
 10
176.254864
 20
2.192273
 30
0.0
 10
176.983276
 20
2.192273
 30
0.0
  0
SPLINE
  5
17a
100
AcDbEntity
  8
Layer_1
 62
7
100
AcDbSpline
 70
8
 71
3
 72
8
 73
4
 74
0
 40
0
 40
0
 40
0
 40
0
 40
1
 40
1
 40
1
 40
1
 10
176.983276
 20
2.192273
 30
0.0
 10
177.329259
 20
2.192273
 30
0.0
 10
177.659318
 20
2.242349
 30
0.0
 10
177.973454
 20
2.342502
 30
0.0
  0
SPLINE
  5
17b
100
AcDbEntity
  8
Layer_1
 62
7
100
AcDbSpline
 70
8
 71
3
 72
8
 73
4
 74
0
 40
0
 40
0
 40
0
 40
0
 40
1
 40
1
 40
1
 40
1
 10
177.973454
 20
2.342502
 30
0.0
 10
178.287577
 20
2.442655
 30
0.0
 10
178.647224
 20
2.613375
 30
0.0
 10
179.052394
 20
2.854662
 30
0.0
  0
LWPOLYLINE
  5
17c
100
AcDbEntity
  8
Layer_1
 62
7
100
AcDbPolyline
 90
2
 70
0
 10
181.626850
 20
7.518739
 30
0.0
 10
178.642678
 20
6.986092
 30
0.0
  0
LWPOLYLINE
  5
17d
100
AcDbEntity
  8
Layer_1
 62
7
100
AcDbPolyline
 90
3
 70
0
 10
179.052394
 20
2.854662
 30
0.0
 10
179.052394
 20
3.797038
 30
0.0
 10
176.983276
 20
3.797042
 30
0.0
  0
ENDSEC
  0
SECTION
  2
OBJECTS
  0
DICTIONARY
  5
C
330
0
100
AcDbDictionary
  3
ACAD_GROUP
350
D
  3
ACAD_MLINESTYLE
350
17
  0
DICTIONARY
  5
D
330
C
100
AcDbDictionary
  0
DICTIONARY
  5
1A
330
C
100
AcDbDictionary
  0
DICTIONARY
  5
17
330
C
100
AcDbDictionary
  3
STANDARD
350
18
  0
DICTIONARY
  5
19
330
C
100
AcDbDictionary
  0
ENDSEC
  0
EOF
