<?xml version="1.0" encoding="UTF-8"?>
<!-- Created with Inkscape (http://www.inkscape.org/) -->
<svg width="181.76mm" height="55.799mm" version="1.1" viewBox="0 0 181.76 55.799" xmlns="http://www.w3.org/2000/svg">
 <g transform="translate(-12.507 -45.763)">
  <g transform="matrix(1.9822 0 0 1.9822 -12.284 -44.948)">
   <g transform="translate(.25272 33.485)" fill="#0147a6">
    <g stroke-width=".098076">
     <path d="m95.781 12.432c2.4218-0.21253 4.7299-0.11514 6.8923 0.18409 0 0 0.61621 0.23852 0.35817 0.1784-0.64779 2.2005-1.3932 4.3952-1.969 6.7146-3.2749-4.3275-11.206 3.567-6.6254 5.9979 1.3792 0.72949 3.3631 0.6068 4.4768-0.26824 0.62642-0.49597 1.2171-1.1559 1.7006-1.7905 0.87043 2.5782 1.6361 5.1348 2.4169 7.7884-2.6776 0.36063-5.922 1.2791-8.9512 0.62631-11.02-2.375-9.7431-18.433 1.7007-19.431"/>
     <path d="m19.902 12.437c2.003-0.14741 4.06 0.12338 5.6404 0.35876 0.91486 0.13348 2.0016 0.58708 1.8055 0.53648-0.43654 1.4799-0.97855 3.4676-1.3791 4.9811-1.2982-0.19292-5.7119-1.2817-6.3351-0.32518-0.21508 0.32395-0.15123 0.71743-0.08925 1.1635 0.28795 0.97184 5.293 0.64662 6.9829 1.8797 0.93898 0.68585 1.6348 1.7032 1.8797 3.1337 0.78961 4.6306-2.3669 7.6681-6.3565 7.9686-2.2377 0.16438-4.4445-0.02595-6.5343-0.18027-0.84777-0.06451-1.8556-0.24617-2.6863-0.35876 0-5e-3 0.01196-0.26569 0-0.26824 0.38907-1.433 0.81806-3.0863 1.2533-4.566 1.4812 0.21891 6.2129 0.63838 6.9823-0.35808 0.17399-0.22901 0.44605-0.80786 0.08984-1.1635-0.63907-0.63966-1.633-0.52069-2.5656-0.63966-3.4196-0.43399-5.9409-0.82943-6.2964-4.8216-0.17585-1.967 0.23725-3.5001 1.0743-4.654 1.3204-1.8336 3.5777-2.4714 6.5342-2.6865"/>
     <path d="m54.295 12.403h8.2475l5.2818 9.7908v-9.7908h6.1774v19.757l-8.5715-0.0059-4.8566-9.9597v9.966l-6.2788-0.0059c0-1e-4 0.01008-17.844 0-19.751"/>
    </g>
    <polygon transform="matrix(.098076 0 0 .098076 11.758 9.9897)" points="667.56 225.34 667.56 24.603 741.58 24.603 741.49 225.34"/>
    <path d="m44.887 22.012c-0.30678 1.7619-2.5769 3.9814-4.3636 4.2769-1.4836 0.24235-2.4985-0.14741-3.2305-0.87308-2.6022-2.5801 1.5691-6.7899 4.0156-7.1575 2.2182-0.33601 3.9663 1.5158 3.5785 3.7537m5.5872-3.4925c-1.4147-3.9036-4.9887-6.6198-10.737-6.1983-3.5304 0.25628-6.542 2.2865-7.944 4.7135-1.1451 1.979-1.8684 5.0754-1.135 7.9446 2.4751 9.6856 17.723 9.5566 20.078-0.34866 0.45115-1.9024 0.36259-4.3876-0.26187-6.111" stroke-width=".098076"/>
   </g>
   <g stroke-width=".26458" aria-label="THE HEDGEHOG">
    <path d="m12.798 68.777h4.7439v1.2471h-1.5916v3.8034h-1.5606v-3.8034h-1.5916z"/>
    <path d="m20.845 68.777h1.5606v1.7673h1.7053v-1.7673h1.5675v5.0505h-1.5675v-2.0429h-1.7053v2.0429h-1.5606z"/>
    <path d="m29.832 68.777h4.1823v1.0783h-2.6183v0.80271h2.4288v1.0301h-2.4288v0.99563h2.6941v1.1438h-4.2581z"/>
    <path d="m40.883 68.777h1.5606v1.7673h1.7053v-1.7673h1.5675v5.0505h-1.5675v-2.0429h-1.7053v2.0429h-1.5606z"/>
    <path d="m49.87 68.777h4.1823v1.0783h-2.6183v0.80271h2.4288v1.0301h-2.4288v0.99563h2.6941v1.1438h-4.2581z"/>
    <path d="m57.579 68.777h2.3186q0.68558 0 1.1059 0.18604 0.42375 0.18604 0.69936 0.53399 0.27561 0.34796 0.39963 0.8096 0.12402 0.46164 0.12402 0.97841 0 0.8096-0.18604 1.2575-0.18259 0.44442-0.50987 0.74759-0.32728 0.29972-0.7028 0.39963-0.51332 0.1378-0.93018 0.1378h-2.3186zm1.5606 1.1438v2.7595h0.38241q0.4892 0 0.69591-0.1068 0.20671-0.11024 0.32384-0.37896 0.11713-0.27216 0.11713-0.8785 0-0.80271-0.26183-1.099-0.26183-0.29628-0.86816-0.29628z"/>
    <path d="m68.176 71.998v-1.0508h2.4116v2.1532q-0.69246 0.47198-1.2265 0.64423-0.53054 0.16881-1.2609 0.16881-0.89917 0-1.4676-0.30661-0.565-0.30661-0.8785-0.91295-0.31006-0.60634-0.31006-1.3918 0-0.82682 0.34106-1.4366 0.34106-0.61323 0.99908-0.93018 0.51332-0.2446 1.3815-0.2446 0.83716 0 1.2506 0.15158 0.41686 0.15158 0.68902 0.47198 0.27561 0.31695 0.41341 0.80615l-1.5055 0.26872q-0.09302-0.28594-0.31695-0.43753-0.22049-0.15158-0.565-0.15158-0.51332 0-0.81993 0.35829-0.30317 0.35484-0.30317 1.1265 0 0.81993 0.30661 1.1713 0.31006 0.3514 0.86127 0.3514 0.26183 0 0.49954-0.07579 0.23771-0.07579 0.54433-0.25838v-0.47542z"/>
    <path d="m74.63 68.777h4.1823v1.0783h-2.6183v0.80271h2.4288v1.0301h-2.4288v0.99563h2.6941v1.1438h-4.2581z"/>
    <path d="m82.326 68.777h1.5606v1.7673h1.7053v-1.7673h1.5675v5.0505h-1.5675v-2.0429h-1.7053v2.0429h-1.5606z"/>
    <path d="m90.591 71.306q0-1.2368 0.68902-1.9258 0.68902-0.68902 1.9189-0.68902 1.2609 0 1.943 0.67868 0.68213 0.67524 0.68213 1.8948 0 0.88539-0.29972 1.4538-0.29628 0.565-0.86127 0.88194-0.56155 0.3135-1.4022 0.3135-0.85438 0-1.4159-0.27216-0.55811-0.27216-0.90606-0.86127-0.34795-0.58911-0.34795-1.4745zm1.5606 0.0069q0 0.76481 0.2825 1.099 0.28594 0.33418 0.77515 0.33418 0.50298 0 0.77859-0.32728 0.27561-0.32728 0.27561-1.1748 0-0.71314-0.28939-1.0404-0.28594-0.33073-0.77859-0.33073-0.47198 0-0.75792 0.33418-0.28594 0.33417-0.28594 1.1059z"/>
    <path d="m101.79 71.998v-1.0508h2.4116v2.1532q-0.69247 0.47198-1.2265 0.64423-0.53054 0.16881-1.2609 0.16881-0.89917 0-1.4676-0.30661-0.56499-0.30661-0.8785-0.91295-0.31006-0.60634-0.31006-1.3918 0-0.82682 0.34106-1.4366 0.34106-0.61323 0.99908-0.93018 0.51332-0.2446 1.3815-0.2446 0.83716 0 1.2506 0.15158 0.41686 0.15158 0.68902 0.47198 0.27561 0.31695 0.41341 0.80615l-1.5055 0.26872q-0.093-0.28594-0.31695-0.43753-0.22049-0.15158-0.565-0.15158-0.51332 0-0.81993 0.35829-0.30317 0.35484-0.30317 1.1265 0 0.81993 0.30661 1.1713 0.31006 0.3514 0.86128 0.3514 0.26182 0 0.49954-0.07579 0.23771-0.07579 0.54432-0.25838v-0.47542z"/>
   </g>
  </g>
 </g>
</svg>
