<?xml version="1.0" encoding="UTF-8" standalone="no"?>
<!-- Created with Inkscape (http://www.inkscape.org/) -->

<svg
   width="181.76375mm"
   height="55.798706mm"
   viewBox="0 0 181.76375 55.798706"
   version="1.1"
   id="svg5"
   inkscape:version="1.3 (0e150ed6c4, 2023-07-21)"
   sodipodi:docname="Inkscape 1.3.svg"
   xmlns:inkscape="http://www.inkscape.org/namespaces/inkscape"
   xmlns:sodipodi="http://sodipodi.sourceforge.net/DTD/sodipodi-0.dtd"
   xmlns="http://www.w3.org/2000/svg"
   xmlns:svg="http://www.w3.org/2000/svg">
  <sodipodi:namedview
     id="namedview7"
     pagecolor="#ffffff"
     bordercolor="#666666"
     borderopacity="1.0"
     inkscape:pageshadow="2"
     inkscape:pageopacity="0.0"
     inkscape:pagecheckerboard="0"
     inkscape:document-units="mm"
     showgrid="false"
     inkscape:snap-global="false"
     fit-margin-top="0"
     fit-margin-left="0"
     fit-margin-right="0"
     fit-margin-bottom="0"
     inkscape:zoom="0.74029882"
     inkscape:cx="341.07849"
     inkscape:cy="8.7802382"
     inkscape:window-width="1920"
     inkscape:window-height="1017"
     inkscape:window-x="-8"
     inkscape:window-y="-8"
     inkscape:window-maximized="1"
     inkscape:current-layer="layer1"
     inkscape:showpageshadow="2"
     inkscape:deskcolor="#d1d1d1" />
  <defs
     id="defs2" />
  <g
     inkscape:label="Layer 1"
     inkscape:groupmode="layer"
     id="layer1"
     transform="translate(-12.50653,-45.763435)">
    <g
       id="g41451"
       transform="matrix(1.9821832,0,0,1.9821832,-12.283703,-44.948077)">
      <g
         id="g2087"
         transform="translate(0.25272051,33.485463)"
         style="fill:#0147a6;fill-opacity:1">
        <path
           fill="#133c8a"
           d="m 95.780948,12.432354 c 2.421805,-0.212531 4.729932,-0.115141 6.892342,0.18409 0,0 0.61621,0.238522 0.35817,0.178401 -0.64779,2.200542 -1.39317,4.3952 -1.96899,6.714611 -3.274879,-4.327527 -11.206023,3.567042 -6.625364,5.997866 1.379246,0.729494 3.363143,0.6068 4.476794,-0.268238 0.626422,-0.495973 1.21713,-1.15593 1.70065,-1.790485 0.87043,2.578235 1.63612,5.134795 2.41691,7.788353 -2.6776,0.360626 -5.921964,1.27911 -8.95125,0.626313 -11.019879,-2.375018 -9.743114,-18.433178 1.700738,-19.430911"
           id="path12"
           style="opacity:1;fill:#0147a6;fill-opacity:1;stroke-width:0.0980761" />
        <path
           fill="#133c8a"
           d="m 19.902331,12.437454 c 2.003017,-0.147408 4.059974,0.123381 5.640379,0.358765 0.914858,0.133481 2.001604,0.587085 1.805549,0.536477 -0.43654,1.479876 -0.978547,3.467645 -1.379092,4.981064 -1.298239,-0.192917 -5.711897,-1.281716 -6.335075,-0.325177 -0.215082,0.323947 -0.151234,0.717429 -0.08925,1.163482 0.287953,0.971839 5.292992,0.646618 6.982948,1.879734 0.938984,0.685848 1.634837,1.703196 1.879734,3.133739 0.789614,4.630583 -2.36688,7.668111 -6.356532,7.968614 -2.237714,0.164375 -4.444533,-0.02595 -6.534346,-0.180266 -0.847774,-0.06451 -1.855607,-0.246168 -2.686315,-0.358761 0,-0.005 0.01196,-0.265688 0,-0.26824 0.389069,-1.432994 0.818055,-3.086269 1.253319,-4.566047 1.481151,0.218907 6.212948,0.63838 6.982261,-0.358077 0.173988,-0.229008 0.446052,-0.807856 0.08984,-1.163481 -0.639067,-0.639655 -1.632973,-0.520689 -2.565583,-0.639655 -3.419633,-0.433989 -5.940886,-0.829433 -6.296412,-4.821636 -0.175851,-1.967022 0.237246,-3.500056 1.07433,-4.654023 1.320403,-1.833639 3.577732,-2.47143 6.534247,-2.686512"
           id="path14"
           style="opacity:1;fill:#0147a6;fill-opacity:1;stroke-width:0.0980761"
           sodipodi:nodetypes="ccccccccccccccccccc" />
        <path
           fill="#133c8a"
           d="m 54.294694,12.402637 h 8.247548 l 5.28181,9.79078 v -9.79078 H 74.0015 v 19.756721 l -8.571492,-0.0059 -4.856553,-9.959667 v 9.96604 l -6.278761,-0.0059 c 0,-1e-4 0.01008,-17.843643 0,-19.750544"
           id="path16"
           style="opacity:1;fill:#0147a6;fill-opacity:1;stroke-width:0.0980761" />
        <polygon
           fill="#133c8a"
           points="667.558,225.336 667.558,24.603 741.576,24.603 741.486,225.336 "
           id="polygon20"
           transform="matrix(0.09807648,0,0,0.09807648,11.757649,9.9896615)"
           style="opacity:1;fill:#0147a6;fill-opacity:1" />
        <path
           fill="#133c8a"
           d="m 44.887264,22.011877 c -0.306785,1.761944 -2.576864,3.981414 -4.36362,4.276919 -1.483607,0.242347 -2.498499,-0.147408 -3.230542,-0.873076 -2.602163,-2.580098 1.569129,-6.789933 4.015645,-7.157524 2.218196,-0.33601 3.966307,1.515771 3.578517,3.753681 m 5.587219,-3.492503 c -1.414657,-3.903641 -4.988657,-6.619771 -10.73663,-6.198337 -3.530357,0.256275 -6.541996,2.286458 -7.943998,4.713458 -1.145141,1.978988 -1.868357,5.07536 -1.135039,7.944588 2.475055,9.685645 17.723301,9.556572 20.077533,-0.348663 0.451154,-1.902388 0.362591,-4.387647 -0.261866,-6.111046"
           id="path22"
           style="opacity:1;fill:#0147a6;fill-opacity:1;stroke-width:0.0980761" />
      </g>
      <g
         id="g41430">
        <g
           aria-label="THE HEDGEHOG"
           id="text7647"
           style="font-size:7.05556px;line-height:1.25;font-family:'Arial Black';-inkscape-font-specification:'Arial Black, ';letter-spacing:2.59027px;stroke-width:0.264583">
          <path
             d="m 12.797944,68.776919 h 4.7439 v 1.247125 h -1.591636 v 3.803388 h -1.560629 v -3.803388 h -1.591635 z"
             style="font-weight:900;-inkscape-font-specification:'Arial Black,  Heavy'"
             id="path41273" />
          <path
             d="m 20.845249,68.776919 h 1.560629 v 1.767335 h 1.705324 v -1.767335 h 1.567519 v 5.050513 h -1.567519 v -2.042943 h -1.705324 v 2.042943 h -1.560629 z"
             style="font-weight:900;-inkscape-font-specification:'Arial Black,  Heavy'"
             id="path41275" />
          <path
             d="m 29.831686,68.776919 h 4.182349 v 1.078316 h -2.618274 v 0.802707 h 2.428794 v 1.030085 h -2.428794 v 0.995633 h 2.694066 v 1.143772 h -4.258141 z"
             style="font-weight:900;-inkscape-font-specification:'Arial Black,  Heavy'"
             id="path41277" />
          <path
             d="m 40.883364,68.776919 h 1.560629 v 1.767335 h 1.705324 v -1.767335 h 1.567519 v 5.050513 h -1.567519 v -2.042943 h -1.705324 v 2.042943 h -1.560629 z"
             style="font-weight:900;-inkscape-font-specification:'Arial Black,  Heavy'"
             id="path41279" />
          <path
             d="m 49.869803,68.776919 h 4.182349 v 1.078316 h -2.618274 v 0.802707 h 2.428793 v 1.030085 h -2.428793 v 0.995633 h 2.694066 v 1.143772 h -4.258141 z"
             style="font-weight:900;-inkscape-font-specification:'Arial Black,  Heavy'"
             id="path41281" />
          <path
             d="m 57.579489,68.776919 h 2.31855 q 0.685575,0 1.105877,0.186035 0.423747,0.186036 0.699355,0.53399 0.275607,0.347955 0.399631,0.809598 0.124023,0.461644 0.124023,0.978408 0,0.809598 -0.186035,1.257461 -0.18259,0.444417 -0.509874,0.747586 -0.327285,0.299724 -0.7028,0.399631 -0.51332,0.137804 -0.930177,0.137804 h -2.31855 z m 1.560629,1.143772 v 2.759524 h 0.382406 q 0.489204,0 0.695909,-0.106798 0.206706,-0.110243 0.32384,-0.378961 0.117133,-0.272163 0.117133,-0.8785 0,-0.802708 -0.261827,-1.098986 -0.261828,-0.296279 -0.868165,-0.296279 z"
             style="font-weight:900;-inkscape-font-specification:'Arial Black,  Heavy'"
             id="path41283" />
          <path
             d="m 68.176163,71.998085 v -1.050754 h 2.411569 v 2.153186 q -0.692465,0.471978 -1.226455,0.644233 -0.530545,0.16881 -1.260906,0.16881 -0.89917,0 -1.467612,-0.306614 -0.564996,-0.306614 -0.8785,-0.912951 -0.310058,-0.606337 -0.310058,-1.391819 0,-0.826824 0.341064,-1.436606 0.341065,-0.613227 0.999079,-0.930176 0.513319,-0.244602 1.381484,-0.244602 0.837159,0 1.25057,0.151584 0.416857,0.151584 0.68902,0.471978 0.275608,0.316949 0.413412,0.806153 l -1.505508,0.268718 q -0.09302,-0.285943 -0.316949,-0.437528 -0.220486,-0.151584 -0.564996,-0.151584 -0.51332,0 -0.819933,0.35829 -0.303169,0.354845 -0.303169,1.126547 0,0.819933 0.306614,1.171333 0.310059,0.3514 0.861274,0.3514 0.261828,0 0.499539,-0.07579 0.237712,-0.07579 0.544326,-0.258382 v -0.475424 z"
             style="font-weight:900;-inkscape-font-specification:'Arial Black,  Heavy'"
             id="path41285" />
          <path
             d="m 74.630454,68.776919 h 4.182348 v 1.078316 h -2.618274 v 0.802707 h 2.428794 v 1.030085 h -2.428794 v 0.995633 h 2.694066 v 1.143772 h -4.25814 z"
             style="font-weight:900;-inkscape-font-specification:'Arial Black,  Heavy'"
             id="path41287" />
          <path
             d="m 82.326359,68.776919 h 1.560629 v 1.767335 h 1.705323 v -1.767335 h 1.56752 v 5.050513 h -1.56752 v -2.042943 h -1.705323 v 2.042943 h -1.560629 z"
             style="font-weight:900;-inkscape-font-specification:'Arial Black,  Heavy'"
             id="path41289" />
          <path
             d="m 90.590704,71.305621 q 0,-1.23679 0.689019,-1.92581 0.68902,-0.689019 1.91892,-0.689019 1.260905,0 1.943035,0.678684 0.682129,0.675239 0.682129,1.894804 0,0.88539 -0.299724,1.453831 -0.296278,0.564996 -0.861274,0.881945 -0.561551,0.313504 -1.402155,0.313504 -0.854384,0 -1.415935,-0.272163 -0.558106,-0.272163 -0.906061,-0.861274 -0.347954,-0.589112 -0.347954,-1.474502 z m 1.560629,0.0069 q 0,0.764812 0.282498,1.098986 0.285943,0.334175 0.775147,0.334175 0.502984,0 0.778592,-0.327285 0.275608,-0.327284 0.275608,-1.174778 0,-0.713135 -0.289389,-1.04042 -0.285943,-0.330729 -0.778592,-0.330729 -0.471978,0 -0.757921,0.334175 -0.285943,0.334174 -0.285943,1.105876 z"
             style="font-weight:900;-inkscape-font-specification:'Arial Black,  Heavy'"
             id="path41291" />
          <path
             d="m 101.79372,71.998085 v -1.050754 h 2.41157 v 2.153186 q -0.69247,0.471978 -1.22646,0.644233 -0.53054,0.16881 -1.26091,0.16881 -0.89917,0 -1.46761,-0.306614 -0.564993,-0.306614 -0.878497,-0.912951 -0.310059,-0.606337 -0.310059,-1.391819 0,-0.826824 0.341065,-1.436606 0.341065,-0.613227 0.999081,-0.930176 0.51332,-0.244602 1.38148,-0.244602 0.83716,0 1.25057,0.151584 0.41686,0.151584 0.68902,0.471978 0.27561,0.316949 0.41341,0.806153 l -1.5055,0.268718 q -0.093,-0.285943 -0.31695,-0.437528 -0.22049,-0.151584 -0.565,-0.151584 -0.51332,0 -0.81993,0.35829 -0.30317,0.354845 -0.30317,1.126547 0,0.819933 0.30661,1.171333 0.31006,0.3514 0.86128,0.3514 0.26182,0 0.49954,-0.07579 0.23771,-0.07579 0.54432,-0.258382 v -0.475424 z"
             style="font-weight:900;-inkscape-font-specification:'Arial Black,  Heavy'"
             id="path41293" />
        </g>
      </g>
    </g>
  </g>
</svg>
